<svg width="140" height="30" viewBox="0 0 140 30" fill="none" xmlns="http://www.w3.org/2000/svg">
<path d="M36.002 2.7625C36.1472 2.76252 36.2924 2.76254 36.442 2.76255C36.885 2.76212 37.3278 2.75849 37.7707 2.75469C38.051 2.7541 38.3314 2.75371 38.6117 2.75352C38.8681 2.7527 39.1245 2.75188 39.3886 2.75103C40 2.79961 40 2.79961 40.4 3.19961C40.4492 3.77249 40.4747 4.32742 40.4828 4.90118C40.4867 5.0693 40.4906 5.23742 40.4946 5.41064C40.5065 5.94861 40.5158 6.48659 40.525 7.02461C40.5326 7.38894 40.5404 7.75326 40.5484 8.11758C40.5677 9.01156 40.5845 9.90556 40.6 10.7996C41.8237 9.24352 43.047 7.68716 44.2625 6.12461C44.4329 5.90612 44.4329 5.90612 44.6066 5.68321C44.7192 5.53857 44.8317 5.39394 44.9477 5.24493C45.0599 5.10587 45.1721 4.96681 45.2878 4.82354C45.6119 4.40973 45.6119 4.40973 45.8255 3.94053C46.1066 3.41577 46.3063 3.13928 46.8 2.79961C47.828 2.61749 48.8184 2.61943 49.8593 2.65694C50.3514 2.67466 50.8428 2.68152 51.3352 2.68633C51.6474 2.6917 51.9596 2.69767 52.2719 2.7043C52.4928 2.70873 52.4928 2.70873 52.7182 2.71325C53.7526 2.75224 53.7526 2.75224 54.2 3.19961C54.1694 4.16585 53.6153 4.77483 53.025 5.48711C52.8239 5.73603 52.6229 5.98498 52.4219 6.23399C52.3186 6.3607 52.2154 6.48742 52.109 6.61797C51.6231 7.21816 51.1498 7.82813 50.675 8.43711C49.7334 9.63857 48.7725 10.823 47.8 11.9996C49.1831 15.1461 50.6574 18.2482 52.1341 21.3515C52.3541 21.8144 52.5734 22.2776 52.7925 22.7409C53.0509 23.2871 53.3123 23.8316 53.5771 24.3747C53.687 24.6039 53.7969 24.833 53.9102 25.0691C54.0056 25.2654 54.1011 25.4616 54.1995 25.6637C54.411 26.2289 54.4895 26.6028 54.4 27.1996C53.4426 27.8379 52.3437 27.6663 51.2242 27.6627C50.8015 27.6621 50.379 27.6668 49.9563 27.6719C49.6875 27.6723 49.4188 27.6725 49.15 27.6723C48.9056 27.6729 48.6612 27.6735 48.4094 27.6741C47.7213 27.59 47.6271 27.5112 47.2 26.9996C46.9979 26.6448 46.9979 26.6448 46.8173 26.2472C46.7485 26.0976 46.6797 25.9479 46.6088 25.7937C46.5363 25.6325 46.4638 25.4712 46.3891 25.3051C46.3124 25.1375 46.2357 24.97 46.1567 24.7974C45.9115 24.2612 45.6682 23.7242 45.425 23.1871C45.1052 22.4845 44.7847 21.7823 44.4641 21.0801C44.3879 20.913 44.3117 20.7458 44.2332 20.5737C43.7132 19.4364 43.177 18.3093 42.6 17.1996C41.0981 18.7255 40.3979 19.9151 40.3776 22.0804C40.3825 22.5622 40.3968 23.0431 40.4125 23.5246C40.4207 24.0146 40.4261 24.5044 40.4285 24.9944C40.4308 25.2965 40.4369 25.5986 40.4472 25.9006C40.4575 26.4635 40.4595 26.8936 40.1801 27.3915C39.6107 27.7033 39.1327 27.6739 38.4867 27.6723C38.0998 27.6721 38.0998 27.6721 37.7051 27.6719C37.571 27.6702 37.4369 27.6686 37.2987 27.6668C36.8882 27.6621 36.478 27.6627 36.0676 27.6641C34.0534 27.653 34.0534 27.653 33.6 27.1996C33.5502 26.773 33.5502 26.773 33.5506 26.2341C33.5497 26.0302 33.5489 25.8264 33.548 25.6163C33.5491 25.3918 33.5503 25.1672 33.5514 24.9359C33.551 24.7001 33.5507 24.4643 33.5503 24.2214C33.5497 23.5739 33.5508 22.9265 33.5529 22.279C33.5546 21.6024 33.5543 20.9258 33.5542 20.2493C33.5544 19.1132 33.5561 17.9771 33.5588 16.8411C33.562 15.5259 33.563 14.2108 33.5629 12.8957C33.5628 11.6324 33.5638 10.3691 33.5655 9.10582C33.5662 8.5673 33.5665 8.02879 33.5666 7.49027C33.5671 6.73933 33.5688 5.9884 33.5709 5.23745C33.5709 5.01251 33.5708 4.78757 33.5707 4.55582C33.5715 4.3525 33.5724 4.14918 33.5733 3.9397C33.5736 3.76194 33.5739 3.58419 33.5743 3.40105C33.6421 2.34224 35.1866 2.76537 36.002 2.7625Z" fill="white"/>
<path d="M68.2311 2.73028C68.5263 2.72696 68.8216 2.7215 69.1168 2.71387C69.542 2.70293 69.9669 2.69854 70.3922 2.69561C70.7752 2.68966 70.7752 2.68966 71.1659 2.6836C71.8 2.8003 71.8 2.8003 72.1439 3.19048C72.487 4.00734 72.8055 4.82839 73.1055 5.66201C73.1737 5.84896 73.242 6.03591 73.3123 6.22852C73.4605 6.63486 73.6083 7.04136 73.7557 7.44801C74.0712 8.31873 74.3889 9.18865 74.7066 10.0586C74.8747 10.5191 75.0427 10.9797 75.2106 11.4403C76.1934 14.1347 77.1904 16.8237 78.1875 19.5128C78.3608 19.9805 78.5341 20.4482 78.7074 20.9159C78.8692 21.3526 79.0311 21.7893 79.193 22.2261C79.2659 22.423 79.3389 22.6199 79.4141 22.8227C79.4827 23.0075 79.5512 23.1923 79.6218 23.3828C79.6859 23.5561 79.75 23.7294 79.8161 23.908C79.9357 24.2283 80.0573 24.5479 80.1811 24.8666C80.4975 25.684 80.7051 26.3173 80.6 27.2003C80.0419 27.7584 79.6937 27.6519 78.9133 27.6534C78.6556 27.6539 78.3979 27.6545 78.1324 27.655C77.9979 27.6541 77.8634 27.6533 77.7248 27.6524C77.3148 27.6503 76.9049 27.6524 76.4949 27.655C76.108 27.6542 76.108 27.6542 75.7133 27.6534C75.476 27.653 75.2387 27.6525 74.9942 27.6521C74.4 27.6003 74.4 27.6003 73.8 27.2003C73.5827 26.7307 73.5827 26.7307 73.3806 26.1345C73.3038 25.9113 73.2269 25.6881 73.1478 25.4582C73.0259 25.0939 73.0259 25.0939 72.9016 24.7222C72.8153 24.4693 72.7289 24.2165 72.6423 23.9638C72.414 23.296 72.1881 22.6275 71.9628 21.9587C71.7367 21.2888 71.5086 20.6195 71.2805 19.9503C71.0222 19.1924 70.7642 18.4344 70.5078 17.6759C69.9557 16.0442 69.384 14.4207 68.8 12.8003C68.1679 14.3311 67.6099 15.8824 67.068 17.4472C66.9362 17.8251 66.8045 18.2031 66.6727 18.581C66.3511 19.5034 66.0306 20.4262 65.7103 21.349C65.5294 21.8703 65.348 22.3914 65.1662 22.9124C64.9959 23.4005 64.8262 23.8889 64.6573 24.3775C64.5799 24.5992 64.5024 24.8209 64.4226 25.0493C64.3553 25.2431 64.288 25.437 64.2186 25.6367C63.6198 27.1805 63.6198 27.1805 63.2 27.6003C62.3805 27.6439 61.5604 27.6375 60.7398 27.6374C60.3281 27.6378 59.9164 27.6414 59.5047 27.6452C59.2458 27.6456 58.987 27.646 58.7203 27.6464C58.4817 27.6472 58.2432 27.648 57.9974 27.6489C57.4 27.6003 57.4 27.6003 56.8 27.2003C56.9078 26.0051 57.1689 25.0026 57.6 23.8862C57.6615 23.7226 57.723 23.559 57.7864 23.3904C57.9894 22.8514 58.1947 22.3134 58.4 21.7753C58.5436 21.3951 58.687 21.0148 58.8301 20.6344C59.0547 20.0379 59.2794 19.4415 59.5048 18.8452C60.2705 16.8189 61.0207 14.7869 61.7695 12.7542C62.1246 11.7907 62.4807 10.8275 62.8367 9.86436C62.9032 9.68443 62.9697 9.5045 63.0383 9.31912C63.5908 7.82482 64.1435 6.3306 64.7 4.8378C64.7711 4.64581 64.8423 4.45382 64.9156 4.25601C64.9785 4.08783 65.0414 3.91966 65.1063 3.74639C65.159 3.6049 65.2117 3.46341 65.266 3.31763C65.6728 2.35423 67.3118 2.73784 68.2311 2.73028Z" fill="white"/>
<path d="M124.4 2.80005C125.272 2.77532 126.144 2.75718 127.016 2.74512C127.313 2.74009 127.609 2.73327 127.906 2.72461C128.332 2.71247 128.759 2.70681 129.185 2.70239C129.57 2.69454 129.57 2.69454 129.963 2.68652C130.6 2.80005 130.6 2.80005 130.95 3.2062C131.256 3.93201 131.548 4.65944 131.818 5.39927C131.877 5.55945 131.937 5.71964 131.998 5.88468C132.195 6.41863 132.391 6.95309 132.588 7.48755C132.727 7.86527 132.867 8.24296 133.006 8.6206C133.308 9.43844 133.61 10.2565 133.911 11.0747C134.692 13.1935 135.478 15.3105 136.262 17.4279C136.52 18.1232 136.777 18.8186 137.034 19.5141C137.116 19.7336 137.197 19.9531 137.281 20.1793C137.438 20.6054 137.595 21.0316 137.752 21.4579C138.09 22.3726 138.431 23.285 138.79 24.1912C138.848 24.339 138.906 24.4868 138.966 24.6391C139.116 25.0203 139.27 25.4004 139.423 25.7804C139.608 26.4294 139.628 26.7688 139.4 27.4C138.556 27.8222 137.454 27.6454 136.525 27.6481C136.115 27.65 135.705 27.6562 135.295 27.6625C135.037 27.6636 134.779 27.6646 134.513 27.6657C134.276 27.6675 134.039 27.6694 133.794 27.6713C133.117 27.59 133.016 27.5129 132.6 27C132.41 26.5855 132.41 26.5855 132.245 26.1021C132.182 25.9202 132.119 25.7382 132.055 25.5508C131.988 25.3533 131.922 25.1558 131.854 24.9524C131.783 24.7462 131.712 24.5399 131.639 24.3274C131.412 23.6647 131.187 23.0012 130.963 22.3375C130.669 21.4756 130.374 20.614 130.079 19.7524C130.007 19.5408 129.934 19.3293 129.86 19.1113C129.136 16.9969 128.373 14.8969 127.6 12.8C127.429 13.2743 127.257 13.7486 127.086 14.2229C126.941 14.625 126.795 15.0271 126.65 15.4292C126.162 16.7842 125.679 18.1412 125.202 19.5003C124.916 20.3162 124.629 21.1317 124.341 21.9473C124.197 22.3572 124.054 22.7674 123.911 23.1777C123.707 23.7619 123.501 24.3455 123.295 24.929C123.234 25.1058 123.173 25.2827 123.11 25.465C122.505 27.1677 122.505 27.1677 122 27.6C121.409 27.7004 121.409 27.7004 120.694 27.6993C120.308 27.6995 120.308 27.6995 119.915 27.6997C119.781 27.6976 119.647 27.6955 119.51 27.6934C119.101 27.6876 118.694 27.6892 118.285 27.6918C116.306 27.6789 116.306 27.6789 115.856 27.3436C115.6 27 115.6 27 115.705 26.222C116.027 25.0033 116.475 23.8279 116.919 22.6493C117.011 22.4023 117.103 22.1553 117.197 21.9008C117.445 21.2338 117.695 20.5673 117.945 19.901C118.205 19.2081 118.463 18.5147 118.722 17.8213C119.194 16.5549 119.668 15.2889 120.142 14.0231C120.574 12.8695 121.005 11.7157 121.436 10.5617C121.849 9.45769 122.262 8.35383 122.675 7.25005C122.752 7.04396 122.829 6.83787 122.909 6.62553C123.124 6.05131 123.339 5.47722 123.555 4.90317C123.649 4.65033 123.649 4.65033 123.746 4.39237C124.177 3.24628 124.177 3.24628 124.4 2.80005Z" fill="white"/>
<path d="M14.1563 3.29004C14.9374 3.42371 15.1629 3.71618 15.617 4.34507C15.7104 4.48289 15.8038 4.6207 15.9 4.7627C16.1068 5.05609 16.3138 5.34932 16.5211 5.64238C16.6297 5.79804 16.7384 5.95369 16.8503 6.11406C17.2145 6.62036 17.5962 7.10799 17.9852 7.59551C18.1793 7.84347 18.1793 7.84347 18.3773 8.09644C18.6294 8.41793 18.8848 8.73685 19.1438 9.05278C19.714 9.7956 20.0969 10.3459 20.0414 11.3049C19.8424 12.3084 19.3365 13.0969 18.775 13.9377C18.0056 15.0261 18.0056 15.0261 17.8391 16.3041C17.9187 16.5497 17.9187 16.5497 18 16.8002C18.3801 16.8149 18.3801 16.8149 18.768 16.8299C19.1078 16.8449 19.4477 16.86 19.7875 16.8752C19.9537 16.8814 20.1198 16.8876 20.291 16.8939C21.1309 16.9332 21.9593 17.0021 22.7883 17.1455C23.0012 17.1821 23.0012 17.1821 23.2184 17.2194C23.9912 17.5855 24.2115 18.3984 24.4884 19.1588C24.5881 19.4513 24.6865 19.7443 24.7836 20.0377C24.836 20.1937 24.8884 20.3497 24.9424 20.5105C25.0525 20.8391 25.1618 21.1679 25.2707 21.4969C25.4372 21.9992 25.6065 22.5005 25.7762 23.0018C25.883 23.322 25.9896 23.6423 26.0961 23.9627C26.1467 24.1119 26.1973 24.2611 26.2495 24.4148C26.4922 25.1563 26.7046 25.8176 26.6 26.6002C26.0885 27.1117 25.7832 27.1037 25.0727 27.2072C24.8457 27.2411 24.6187 27.275 24.3848 27.31C24.1464 27.3439 23.9081 27.3778 23.6625 27.4127C23.428 27.4474 23.1935 27.482 22.952 27.5178C22.4977 27.5847 22.0433 27.6505 21.5888 27.7151C21.1445 27.7793 20.7013 27.8502 20.2586 27.9244C18.321 28.1474 17.2728 27.9812 15.65 26.8502C15.4878 26.7424 15.3257 26.6347 15.1586 26.5236C14.5799 26.1378 14.0057 25.7463 13.4387 25.3436C12.787 24.8853 12.787 24.8853 12 24.8002C11.5971 25.3176 11.5971 25.3176 11.2125 25.9627C10.2592 27.5002 10.2592 27.5002 9.6 27.8002C8.41318 27.7617 7.22681 27.5128 6.06328 27.2885C5.90697 27.2586 5.75065 27.2288 5.5896 27.198C5.263 27.1354 4.93647 27.0723 4.61001 27.0089C4.10919 26.9121 3.60794 26.8176 3.10664 26.7232C2.78799 26.6618 2.46937 26.6002 2.15078 26.5385C2.001 26.5105 1.85122 26.4826 1.6969 26.4538C0.645757 26.246 0.645757 26.246 0.200001 25.8002C0.307017 24.2669 0.938401 22.912 1.525 21.5127C1.58216 21.3756 1.63931 21.2385 1.6982 21.0973C2.76706 18.5558 4.0977 16.2724 5.62627 13.977C6.00863 13.3869 6.36725 12.7874 6.72109 12.1799C8.00104 9.98317 9.30371 8.09566 11.1064 6.30332C11.7387 5.65049 12.2925 4.93209 12.8586 4.22207C13.5091 3.41819 13.5091 3.41819 14.1563 3.29004ZM13.3836 10.1846C11.775 11.8507 10.6618 13.6775 9.50938 15.6769C9.10062 16.3683 8.66525 17.0407 8.22788 17.7143C6.55151 20.084 6.55151 20.084 5.8 22.8002C6.79 22.9982 7.78 23.1962 8.8 23.4002C9.20115 22.8427 9.60095 22.2842 10 21.7252C10.1145 21.5664 10.2289 21.4076 10.3469 21.2439C10.4552 21.0918 10.5634 20.9397 10.675 20.783C10.7755 20.6427 10.8761 20.5023 10.9797 20.3577C11.235 20.0134 11.235 20.0134 11.2 19.6002C11.6302 19.8575 12.0604 20.115 12.4904 20.3727C12.8568 20.592 13.2235 20.8109 13.5905 21.0293C14.3973 21.5109 15.2005 21.9928 15.9813 22.5158C17.2307 23.3428 18.0911 23.861 19.6 23.6002C19.739 23.5834 19.8779 23.5667 20.0211 23.5494C20.3486 23.5082 20.6746 23.4556 21 23.4002C20.9425 23.125 20.884 22.8501 20.825 22.5752C20.7925 22.4221 20.76 22.2689 20.7266 22.1111C20.5823 21.5287 20.3956 20.9673 20.2 20.4002C19.6626 20.3325 19.1251 20.266 18.5875 20.2002C18.4371 20.1811 18.2866 20.162 18.1316 20.1424C17.2132 20.0311 16.3252 19.9805 15.4 20.0002C15.3588 19.8476 15.3175 19.6949 15.275 19.5377C14.9539 18.6765 14.5087 17.9384 14.0289 17.1564C13.7377 16.4488 13.7799 16.1304 14 15.4002C14.3312 14.7893 14.683 14.2084 15.0586 13.6248C15.3863 13.0886 15.6016 12.7104 15.5922 12.0736C15.3652 11.5144 15.0795 11.1067 14.7 10.6377C14.5742 10.4797 14.4484 10.3216 14.3188 10.1588C14.2136 10.0405 14.1084 9.92212 14 9.8002C13.73 9.77759 13.73 9.77759 13.3836 10.1846Z" fill="white"/>
<path d="M98.0352 2.12963C98.3277 2.12631 98.6202 2.12085 98.9127 2.11322C99.3351 2.10225 99.7571 2.09789 100.18 2.09496C100.433 2.09099 100.686 2.08703 100.946 2.08295C101.6 2.19964 101.6 2.19964 102.05 2.6348C102.397 3.19535 102.719 3.75441 103.019 4.34183C103.185 4.6659 103.185 4.6659 103.355 4.99652C103.469 5.2203 103.583 5.44408 103.7 5.67464C104.712 7.65794 104.712 7.65794 105.8 9.59964C106.31 8.96357 106.679 8.30051 107.05 7.57543C107.11 7.45907 107.17 7.34272 107.231 7.22284C107.422 6.85296 107.611 6.48259 107.8 6.11214C107.989 5.74249 108.179 5.37295 108.369 5.0036C108.541 4.66803 108.713 4.33211 108.884 3.99618C109.704 2.44785 109.704 2.44785 110.2 2.19964C111.085 2.15736 111.971 2.16249 112.857 2.16258C113.298 2.16215 113.739 2.15851 114.18 2.15472C114.46 2.15414 114.739 2.15374 115.019 2.15355C115.274 2.15273 115.529 2.15191 115.792 2.15106C116.4 2.19964 116.4 2.19964 116.8 2.59964C116.791 3.95287 116.137 4.93549 115.462 6.07465C115.225 6.48471 114.988 6.89487 114.751 7.30511C114.627 7.51726 114.504 7.72941 114.377 7.94798C113.756 9.02128 113.154 10.1044 112.55 11.1871C112.332 11.5765 112.115 11.9658 111.897 12.3551C111.788 12.5551 111.68 12.7551 111.568 12.9612C111.3 13.4256 111.031 13.8455 110.722 14.2799C109.063 16.7172 109.157 19.1179 109.2 21.9871C109.202 22.6769 109.201 23.3666 109.2 24.0564C109.2 24.4824 109.202 24.9084 109.207 25.3344C109.209 25.5243 109.211 25.7141 109.212 25.9098C109.215 26.0773 109.217 26.2449 109.22 26.4175C109.2 26.7996 109.2 26.7996 109 26.9996C108.12 27.0433 107.239 27.0368 106.358 27.0367C105.915 27.0371 105.472 27.0408 105.029 27.0446C104.749 27.0452 104.469 27.0456 104.188 27.0457C103.932 27.0466 103.676 27.0474 103.411 27.0482C102.8 26.9996 102.8 26.9996 102.4 26.5996C102.364 26.2082 102.364 26.2082 102.384 25.722C102.389 25.539 102.395 25.3561 102.401 25.1676C102.408 24.9681 102.415 24.7685 102.423 24.5629C102.573 17.746 102.573 17.746 99.6064 11.7723C98.9283 10.8169 98.3855 9.78931 97.825 8.76214C97.6154 8.38853 97.405 8.01534 97.1937 7.64261C97.0945 7.46727 96.9952 7.29192 96.893 7.11127C96.6102 6.61739 96.3218 6.12724 96.0312 5.63793C95.9451 5.49089 95.859 5.34386 95.7702 5.19237C95.6125 4.92378 95.4526 4.65649 95.2899 4.3909C94.9646 3.83278 94.7959 3.47923 94.8297 2.82621C95.2605 1.74723 97.0305 2.13797 98.0352 2.12963Z" fill="white"/>
<path d="M85 2.7998C87.178 2.7998 89.356 2.7998 91.6 2.7998C91.6045 6.00379 91.6082 9.20778 91.6104 12.4118C91.6114 13.8993 91.6128 15.3869 91.6151 16.8745C91.6171 18.1706 91.6184 19.4667 91.6188 20.7628C91.6191 21.4495 91.6197 22.1362 91.6212 22.8228C91.6228 23.5882 91.6228 24.3535 91.6227 25.1189C91.6234 25.3482 91.6241 25.5775 91.6249 25.8138C91.6246 26.021 91.6243 26.2283 91.6241 26.4418C91.6242 26.6231 91.6244 26.8043 91.6246 26.991C91.6 27.3998 91.6 27.3998 91.4 27.5998C90.52 27.6435 89.6389 27.637 88.758 27.6369C88.315 27.6373 87.8722 27.6409 87.4293 27.6447C87.149 27.6453 86.8686 27.6457 86.5883 27.6459C86.3319 27.6467 86.0755 27.6475 85.8114 27.6484C85.2 27.5998 85.2 27.5998 84.8 27.1998C84.7502 26.7769 84.7502 26.7769 84.7506 26.2433C84.7493 25.9404 84.7493 25.9404 84.748 25.6314C84.7491 25.4091 84.7503 25.1867 84.7514 24.9576C84.751 24.7241 84.7507 24.4906 84.7503 24.25C84.7497 23.6087 84.7508 22.9674 84.7529 22.3261C84.7546 21.6558 84.7543 20.9855 84.7542 20.3151C84.7544 19.1893 84.7561 18.0635 84.7588 16.9377C84.762 15.6351 84.763 14.3325 84.7629 13.0298C84.7628 11.7781 84.7638 10.5263 84.7655 9.27455C84.7661 8.74122 84.7665 8.2079 84.7666 7.67457C84.7671 6.93037 84.7688 6.18619 84.771 5.44199C84.7709 5.21964 84.7708 4.99729 84.7707 4.7682C84.7715 4.56629 84.7724 4.36438 84.7733 4.15635C84.7736 3.98025 84.7739 3.80416 84.7743 3.62272C84.8 3.1998 84.8 3.1998 85 2.7998Z" fill="white"/>
</svg>
