<svg width="261" height="270" viewBox="0 0 261 270" fill="none" xmlns="http://www.w3.org/2000/svg">
<g opacity="0.42">
<g filter="url(#filter0_f_274_3364)">
<path d="M144.263 -61.7275L71.463 -58.1835C64.3296 -57.8362 58.8284 -51.7719 59.1757 -44.6386L62.7197 28.1614C63.067 35.2948 69.1312 40.796 76.2646 40.4487L149.065 36.9047C156.198 36.5574 161.699 30.4932 161.352 23.3598L157.808 -49.4402C157.461 -56.5735 151.396 -62.0748 144.263 -61.7275Z" fill="#454545"/>
<path d="M144.263 -61.7275L71.463 -58.1835C64.3296 -57.8362 58.8284 -51.7719 59.1757 -44.6386L62.7197 28.1614C63.067 35.2948 69.1312 40.796 76.2646 40.4487L149.065 36.9047C156.198 36.5574 161.699 30.4932 161.352 23.3598L157.808 -49.4402C157.461 -56.5735 151.396 -62.0748 144.263 -61.7275Z" stroke="#4A4A4A" stroke-opacity="0.89" stroke-width="2"/>
</g>
<g filter="url(#filter1_f_274_3364)">
<path d="M116.429 -43.9343L18.0824 -30.3261C11.6511 -29.4362 7.1589 -23.5013 8.04879 -17.07L21.6569 81.2764C22.5468 87.7077 28.4818 92.1998 34.9131 91.3099L133.259 77.7018C139.691 76.8119 144.183 70.8769 143.293 64.4456L129.685 -33.9007C128.795 -40.332 122.86 -44.8242 116.429 -43.9343Z" fill="#545454" fill-opacity="0.909091"/>
<path d="M116.429 -43.9343L18.0824 -30.3261C11.6511 -29.4362 7.1589 -23.5013 8.04879 -17.07L21.6569 81.2764C22.5468 87.7077 28.4818 92.1998 34.9131 91.3099L133.259 77.7018C139.691 76.8119 144.183 70.8769 143.293 64.4456L129.685 -33.9007C128.795 -40.332 122.86 -44.8242 116.429 -43.9343Z" stroke="#494949" stroke-opacity="0.9" stroke-width="1.90909"/>
</g>
<g filter="url(#filter2_f_274_3364)">
<path d="M85.8398 -27.6307L-36.6349 0.57478C-42.3292 1.88615 -45.8822 7.56533 -44.5709 13.2596L-16.3654 135.734C-15.054 141.429 -9.37487 144.982 -3.68061 143.67L118.794 115.465C124.488 114.153 128.041 108.474 126.73 102.78L98.5246 -19.6948C97.2132 -25.389 91.534 -28.9421 85.8398 -27.6307Z" fill="#646464" fill-opacity="0.818182"/>
<path d="M85.8398 -27.6307L-36.6349 0.57478C-42.3292 1.88615 -45.8822 7.56533 -44.5709 13.2596L-16.3654 135.734C-15.054 141.429 -9.37487 144.982 -3.68061 143.67L118.794 115.465C124.488 114.153 128.041 108.474 126.73 102.78L98.5246 -19.6948C97.2132 -25.389 91.534 -28.9421 85.8398 -27.6307Z" stroke="#484848" stroke-opacity="0.91" stroke-width="1.81818"/>
</g>
<g filter="url(#filter3_f_274_3364)">
<path d="M52.3001 -12.4595L-92.2852 34.686C-97.2234 36.2962 -99.9212 41.6047 -98.311 46.5429L-51.1655 191.128C-49.5553 196.066 -44.2468 198.764 -39.3086 197.154L105.277 150.009C110.215 148.398 112.913 143.09 111.303 138.152L64.157 -6.43369C62.5468 -11.3719 57.2383 -14.0697 52.3001 -12.4595Z" fill="#737373" fill-opacity="0.727273"/>
<path d="M52.3001 -12.4595L-92.2852 34.686C-97.2234 36.2962 -99.9212 41.6047 -98.311 46.5429L-51.1655 191.128C-49.5553 196.066 -44.2468 198.764 -39.3086 197.154L105.277 150.009C110.215 148.398 112.913 143.09 111.303 138.152L64.157 -6.43369C62.5468 -11.3719 57.2383 -14.0697 52.3001 -12.4595Z" stroke="#464646" stroke-opacity="0.92" stroke-width="1.72727"/>
</g>
<g filter="url(#filter4_f_274_3364)">
<path d="M15.6382 1.98389L-148.465 72.1514C-152.644 73.9382 -154.583 78.7743 -152.796 82.9531L-82.6284 247.056C-80.8416 251.235 -76.0055 253.174 -71.8267 251.387L92.2763 181.22C96.4551 179.433 98.3943 174.597 96.6075 170.418L26.4399 6.31505C24.6531 2.13622 19.817 0.197096 15.6382 1.98389Z" fill="#828282" fill-opacity="0.636364"/>
<path d="M15.6382 1.98389L-148.465 72.1514C-152.644 73.9382 -154.583 78.7743 -152.796 82.9531L-82.6284 247.056C-80.8416 251.235 -76.0055 253.174 -71.8267 251.387L92.2763 181.22C96.4551 179.433 98.3943 174.597 96.6075 170.418L26.4399 6.31505C24.6531 2.13622 19.817 0.197096 15.6382 1.98389Z" stroke="#454545" stroke-opacity="0.93"/>
</g>
<g filter="url(#filter5_f_274_3364)">
<path d="M-24.2395 16.082L-204.724 113.026C-208.155 114.869 -209.443 119.145 -207.6 122.577L-110.656 303.061C-108.813 306.493 -104.537 307.781 -101.105 305.937L79.3794 208.994C82.8112 207.151 84.0989 202.874 82.2556 199.442L-14.688 18.9582C-16.5313 15.5264 -20.8077 14.2387 -24.2395 16.082Z" fill="#919191" fill-opacity="0.545455"/>
<path d="M-24.2395 16.082L-204.724 113.026C-208.155 114.869 -209.443 119.145 -207.6 122.577L-110.656 303.061C-108.813 306.493 -104.537 307.781 -101.105 305.937L79.3794 208.994C82.8112 207.151 84.0989 202.874 82.2556 199.442L-14.688 18.9582C-16.5313 15.5264 -20.8077 14.2387 -24.2395 16.082Z" stroke="#444444" stroke-opacity="0.94"/>
</g>
<g filter="url(#filter6_f_274_3364)">
<path d="M-67.4192 30.2782L-260.644 157.36C-263.356 159.144 -264.109 162.789 -262.325 165.501L-135.243 358.725C-133.459 361.438 -129.814 362.19 -127.102 360.406L66.1224 233.325C68.8347 231.541 69.5873 227.896 67.8035 225.184L-59.2783 31.9592C-61.0622 29.247 -64.707 28.4943 -67.4192 30.2782Z" fill="#A1A1A1" fill-opacity="0.454545"/>
<path d="M-67.4192 30.2782L-260.644 157.36C-263.356 159.144 -264.109 162.789 -262.325 165.501L-135.243 358.725C-133.459 361.438 -129.814 362.19 -127.102 360.406L66.1224 233.325C68.8347 231.541 69.5873 227.896 67.8035 225.184L-59.2783 31.9592C-61.0622 29.247 -64.707 28.4943 -67.4192 30.2782Z" stroke="#434343" stroke-opacity="0.95"/>
</g>
</g>
<defs>
<filter id="filter0_f_274_3364" x="53.3601" y="-67.5432" width="113.807" height="113.807" filterUnits="userSpaceOnUse" color-interpolation-filters="sRGB">
<feFlood flood-opacity="0" result="BackgroundImageFix"/>
<feBlend mode="normal" in="SourceGraphic" in2="BackgroundImageFix" result="shape"/>
<feGaussianBlur stdDeviation="2.4" result="effect1_foregroundBlur_274_3364"/>
</filter>
<filter id="filter1_f_274_3364" x="2.61811" y="-49.3646" width="146.106" height="146.105" filterUnits="userSpaceOnUse" color-interpolation-filters="sRGB">
<feFlood flood-opacity="0" result="BackgroundImageFix"/>
<feBlend mode="normal" in="SourceGraphic" in2="BackgroundImageFix" result="shape"/>
<feGaussianBlur stdDeviation="2.18182" result="effect1_foregroundBlur_274_3364"/>
</filter>
<filter id="filter2_f_274_3364" x="-49.6797" y="-32.7398" width="181.519" height="181.519" filterUnits="userSpaceOnUse" color-interpolation-filters="sRGB">
<feFlood flood-opacity="0" result="BackgroundImageFix"/>
<feBlend mode="normal" in="SourceGraphic" in2="BackgroundImageFix" result="shape"/>
<feGaussianBlur stdDeviation="1.96364" result="effect1_foregroundBlur_274_3364"/>
</filter>
<filter id="filter3_f_274_3364" x="-103.132" y="-17.28" width="219.255" height="219.254" filterUnits="userSpaceOnUse" color-interpolation-filters="sRGB">
<feFlood flood-opacity="0" result="BackgroundImageFix"/>
<feBlend mode="normal" in="SourceGraphic" in2="BackgroundImageFix" result="shape"/>
<feGaussianBlur stdDeviation="1.74545" result="effect1_foregroundBlur_274_3364"/>
</filter>
<filter id="filter4_f_274_3364" x="-156.515" y="-1.73521" width="256.842" height="256.842" filterUnits="userSpaceOnUse" color-interpolation-filters="sRGB">
<feFlood flood-opacity="0" result="BackgroundImageFix"/>
<feBlend mode="normal" in="SourceGraphic" in2="BackgroundImageFix" result="shape"/>
<feGaussianBlur stdDeviation="1.52727" result="effect1_foregroundBlur_274_3364"/>
</filter>
<filter id="filter5_f_274_3364" x="-211.059" y="12.623" width="296.774" height="296.773" filterUnits="userSpaceOnUse" color-interpolation-filters="sRGB">
<feFlood flood-opacity="0" result="BackgroundImageFix"/>
<feBlend mode="normal" in="SourceGraphic" in2="BackgroundImageFix" result="shape"/>
<feGaussianBlur stdDeviation="1.30909" result="effect1_foregroundBlur_274_3364"/>
</filter>
<filter id="filter6_f_274_3364" x="-265.474" y="27.1287" width="336.427" height="336.427" filterUnits="userSpaceOnUse" color-interpolation-filters="sRGB">
<feFlood flood-opacity="0" result="BackgroundImageFix"/>
<feBlend mode="normal" in="SourceGraphic" in2="BackgroundImageFix" result="shape"/>
<feGaussianBlur stdDeviation="1.09091" result="effect1_foregroundBlur_274_3364"/>
</filter>
</defs>
</svg>
