<svg width="48" height="48" viewBox="0 0 48 48" fill="none" xmlns="http://www.w3.org/2000/svg">
<path d="M5.409 9.56403L11.508 3.46503L12.993 4.95003L6.894 11.049L5.409 9.56403ZM16.0657 11.0978L22.1655 5.00028L23.6505 6.48528L17.5507 12.5828L16.0657 11.0978ZM36.9825 41.1405L43.083 35.043L44.568 36.5288L38.4675 42.6263L36.9825 41.1405ZM35.4592 30.4178L41.5597 24.3203L43.0447 25.806L36.9435 31.9035L35.4592 30.4178Z" fill="#ACB8BF"/>
<path d="M42.3 45.525L38.775 13.95L34.05 9.22499L2.475 5.69999C0.975002 5.54999 1.275 9.29999 3 10.125L26.775 21.225L37.875 45C38.7 46.725 42.45 47.025 42.3 45.525Z" fill="#42ADE2"/>
<path d="M45.975 6.07501C47.625 2.85001 45.15 0.375011 41.925 2.02501C37.8 4.12501 31.725 8.85001 25.575 14.925C15.975 24.525 9.825 34.05 11.85 36.15C13.875 38.175 23.475 32.025 33.075 22.425C39.15 16.35 43.875 10.2 45.975 6.07501Z" fill="#DAE3EA"/>
<path d="M16.8 45.15L15.6 34.05L13.95 32.4L2.85 31.2C2.325 31.125 2.4 32.475 3 32.775L11.325 36.675L15.225 45C15.525 45.6 16.875 45.675 16.8 45.15Z" fill="#42ADE2"/>
<path d="M15.15 34.65C11.775 38.025 8.7 40.35 8.25 39.825C7.8 39.375 10.125 36.225 13.425 32.85C16.8 29.475 19.875 27.15 20.4 27.675C20.775 28.125 18.45 31.275 15.15 34.65Z" fill="#ACB8BF"/>
<path d="M44.85 7.27498C45.225 5.92498 45.075 4.64998 44.25 3.74998C43.425 2.92498 42.075 2.69998 40.8 3.14998L38.25 4.72498C39.525 4.27498 41.4 4.94998 42.225 5.77498C43.125 6.67498 43.725 8.47498 43.275 9.74998L44.85 7.27498Z" fill="#3E4347"/>
<path d="M40.248 7.27123L44.4885 3.02698L44.9663 3.50398L40.725 7.74898L40.248 7.27123Z" fill="#DAE3EA"/>
</svg>
