<svg width="48" height="48" viewBox="0 0 48 48" fill="none" xmlns="http://www.w3.org/2000/svg">
<path d="M0 12C0 5.37258 5.37258 0 12 0H36C42.6274 0 48 5.37258 48 12V36C48 42.6274 42.6274 48 36 48H12C5.37258 48 0 42.6274 0 36V12Z" fill="#615FFF"/>
<path d="M16 13.3332H13.3333V10.6665H34.6666V13.3332H32V15.9998C32 18.1532 30.912 19.8865 29.5413 21.3025C28.604 22.2705 27.464 23.1625 26.308 23.9998C27.464 24.8372 28.604 25.7292 29.5413 26.6972C30.912 28.1132 32 29.8465 32 31.9998V34.6665H34.6666V37.3332H13.3333V34.6665H16V31.9998C16 29.8465 17.088 28.1132 18.4586 26.6972C19.396 25.7292 20.536 24.8372 21.692 23.9998C20.536 23.1625 19.396 22.2705 18.4586 21.3025C17.088 19.8865 16 18.1532 16 15.9998V13.3332ZM18.6666 13.3332V15.9998C18.6666 16.9132 19.0133 17.7798 19.6946 18.6665H28.3053C28.9853 17.7798 29.3333 16.9132 29.3333 15.9998V13.3332H18.6666ZM24 25.6292C22.6066 26.6132 21.344 27.5505 20.3746 28.5518C20.1337 28.7995 19.9067 29.0603 19.6946 29.3332H28.3053C28.0933 29.0603 27.8663 28.7995 27.6253 28.5518C26.656 27.5505 25.3933 26.6132 24 25.6292Z" fill="white"/>
</svg>
