<svg width="32" height="32" viewBox="0 0 32 32" fill="none" xmlns="http://www.w3.org/2000/svg">
<path d="M29.4075 16.8199C28.355 16.3199 27.0525 15.7199 26.2175 15.3199C25.6295 15.0412 24.9577 14.9956 24.3375 15.1924C23.5375 15.4424 21.215 16.2499 20.6525 16.2274C20.385 16.2138 20.1282 16.1177 19.9175 15.9524C19.625 15.7399 17.86 14.5199 17.0625 13.9774C17.615 13.7574 18.5625 13.3674 19.395 13.0274C19.9682 12.7953 20.4257 12.3451 20.667 11.7757C20.9082 11.2063 20.9133 10.5644 20.6813 9.99115C20.4492 9.41795 19.9989 8.96042 19.4295 8.7192C18.8601 8.47798 18.2182 8.47284 17.645 8.7049C16.325 9.2274 14.8125 9.8349 13.565 10.3674C13.7773 9.87565 13.8862 9.34551 13.885 8.8099C13.8882 7.84469 13.5387 6.91155 12.9023 6.18587C12.2658 5.46019 11.3863 4.99193 10.4289 4.86911C9.47154 4.74629 8.50227 4.97737 7.70328 5.5189C6.90428 6.06044 6.33058 6.87514 6.09001 7.8099C5.97751 7.5599 5.86501 7.3099 5.74751 7.0599C5.48215 6.4816 5.00056 6.03045 4.40619 5.80337C3.81182 5.57628 3.15209 5.59137 2.56873 5.84541C1.98537 6.09944 1.52492 6.57215 1.28629 7.16198C1.04766 7.7518 1.04989 8.4117 1.29251 8.9999C2.38751 11.6674 4.42501 16.4074 5.75001 18.2024C7.61001 20.7224 10.5 24.4524 11.6625 25.7849C13.02 27.3299 14.785 27.6349 16.785 27.0049C18.785 26.3749 25.535 24.3024 27.445 23.6324C28.06 23.4174 28.445 22.7999 28.445 21.9849C28.4483 21.774 28.4273 21.5635 28.3825 21.3574C28.9239 21.3563 29.4488 21.1707 29.8704 20.8311C30.2921 20.4915 30.5854 20.0184 30.702 19.4896C30.8185 18.9609 30.7513 18.4083 30.5114 17.9229C30.2715 17.4375 29.8733 17.0485 29.3825 16.8199H29.4075ZM9.92751 5.8474C10.5139 5.8474 11.0872 6.0213 11.5748 6.34709C12.0624 6.67289 12.4424 7.13596 12.6668 7.67775C12.8912 8.21953 12.9499 8.81569 12.8355 9.39084C12.7211 9.966 12.4387 10.4943 12.0241 10.909C11.6094 11.3236 11.0811 11.606 10.5059 11.7204C9.93079 11.8348 9.33463 11.7761 8.79285 11.5517C8.25107 11.3273 7.788 10.9473 7.4622 10.4597C7.1364 9.97208 6.96251 9.39882 6.96251 8.8124C6.96251 8.02604 7.27489 7.27188 7.83093 6.71583C8.38698 6.15979 9.14114 5.8474 9.92751 5.8474ZM9.80501 13.9124C9.32229 13.488 8.88494 13.0146 8.50001 12.4999C8.99868 12.6941 9.53315 12.7794 10.0675 12.7499C9.89271 13.1124 9.80293 13.51 9.80501 13.9124ZM27.115 22.6899C25.2125 23.3574 18.365 25.4574 16.485 26.0524C14.735 26.5999 13.45 26.3024 12.415 25.1249C11.2625 23.8149 8.41501 20.1249 6.55501 17.6074C5.30501 15.8999 3.30501 11.2424 2.21751 8.6074C2.07125 8.26005 2.06803 7.869 2.20856 7.51929C2.34908 7.16958 2.62198 6.88949 2.96791 6.73991C3.31385 6.59033 3.70485 6.58337 4.05589 6.72054C4.40693 6.85771 4.68962 7.12791 4.84251 7.4724C5.59251 9.1174 6.59251 11.2624 7.09251 12.1499C8.05001 13.8024 9.22751 14.8374 10.8425 16.0999C12.8425 17.6674 16.4025 20.2674 17.195 20.8674C19.195 22.3674 21.02 21.6699 22.4925 21.1174C23.05 20.9049 23.065 20.9074 23.7225 20.6174C24.67 20.1974 25.355 19.8949 26.4725 20.3249C27.115 20.5749 27.45 21.3549 27.44 21.9624C27.445 22.2624 27.3525 22.6049 27.115 22.6899ZM29.6475 19.5699C29.5001 19.8821 29.2403 20.1271 28.92 20.256C28.5997 20.3849 28.2425 20.388 27.92 20.2649C27.656 19.8754 27.2804 19.5748 26.8425 19.4024C25.3425 18.8199 24.3675 19.2524 23.3425 19.7099C22.6825 19.9999 22.68 19.9999 22.15 20.1899C20.78 20.7124 19.3625 21.2524 17.8125 20.0824C16.8775 19.3774 13.5625 16.9599 11.485 15.3324C11.2578 15.1568 11.0769 14.9283 10.9579 14.6669C10.839 14.4056 10.7857 14.1191 10.8025 13.8324C10.8333 13.5095 10.9429 13.1991 11.1216 12.9285C11.3003 12.6578 11.5427 12.4351 11.8275 12.2799C12.5 11.8774 14.6925 10.9374 18.0175 9.6299C18.3447 9.49729 18.7112 9.5001 19.0363 9.63771C19.3615 9.77531 19.6186 10.0364 19.7513 10.3637C19.8839 10.6909 19.8811 11.0574 19.7435 11.3825C19.6058 11.7076 19.3447 11.9648 19.0175 12.0974C17.8325 12.5974 16.4625 13.1399 16.29 13.2049C16.1569 13.2509 16.0393 13.3334 15.9509 13.443C15.8625 13.5527 15.8067 13.685 15.79 13.8249C15.7747 13.9721 15.8014 14.1206 15.8668 14.2533C15.9323 14.386 16.0339 14.4975 16.16 14.5749C16.41 14.7374 18.9975 16.5199 19.3375 16.7649C19.7032 17.0425 20.144 17.2037 20.6025 17.2274C21.3925 17.2674 23.315 16.5649 24.6425 16.1499C25.0224 16.0271 25.435 16.0548 25.795 16.2274C26.63 16.6224 27.935 17.2274 28.99 17.7274C29.1547 17.8046 29.3024 17.9137 29.4248 18.0483C29.5471 18.1829 29.6415 18.3404 29.7026 18.5117C29.7638 18.683 29.7904 18.8647 29.7809 19.0463C29.7714 19.2279 29.7261 19.4059 29.6475 19.5699Z" fill="black"/>
</svg>
