<svg width="32" height="32" viewBox="0 0 32 32" fill="none" xmlns="http://www.w3.org/2000/svg">
<path d="M15.8731 14.7131L9.45422 16.9464C9.29102 17.0015 9.18186 17.154 9.18008 17.3257V19.7499C9.17439 20.296 9.99679 20.296 9.98968 19.7499V17.6127L16.0043 15.5202L22.0231 17.6127V19.7499C21.9989 20.311 22.8544 20.311 22.8288 19.7499V17.3257C22.8288 17.1554 22.7211 17.0015 22.5579 16.9464L16.1397 14.7131C16.0284 14.6744 15.9819 14.6758 15.8731 14.7131Z" fill="white"/>
<path fill-rule="evenodd" clip-rule="evenodd" d="M15.0741 2.81771C17.2316 2.30678 19.3874 3.62162 19.904 5.75495C20.4185 7.88829 19.0951 10.0234 16.9372 10.5326C14.7783 11.0417 12.6226 9.72864 12.1074 7.59531C11.5911 5.46198 12.9152 3.32758 15.0741 2.81771ZM14.8853 2.03478C12.3061 2.64384 10.704 5.21984 11.3227 7.78091C11.9406 10.342 14.5461 11.9253 17.126 11.3162C19.7059 10.7071 21.3059 8.13078 20.6873 5.56971C20.0686 3.009 17.4631 1.42535 14.8853 2.03478Z" fill="white"/>
<path d="M11.9395 13.2889H20.0707C21.152 13.2889 21.8506 13.4781 22.4242 13.8962C22.9984 14.3147 23.4784 15.0055 24.0039 16.0907L26.4558 21.1538C26.7961 21.856 26.8739 22.3908 26.7626 22.7666C26.6514 23.1446 26.3538 23.4542 25.6924 23.7092L23.104 24.715C22.6784 24.8814 22.3594 24.8377 22.0928 24.6948C21.8282 24.5522 21.617 24.2873 21.5061 23.9705C21.2839 23.3358 21.4229 22.5782 22.2908 22.2059C23.0617 21.8745 24.4039 21.3302 24.4039 21.3302C24.9561 21.1542 24.6204 20.3264 24.1017 20.5838C24.1017 20.5838 22.7612 21.1282 21.9726 21.467C20.7427 21.995 20.4039 23.2672 20.7449 24.2375C20.7893 24.367 20.8483 24.4914 20.9152 24.6098C19.8855 26.5781 18.1632 28.0409 16.0039 29.2189C13.845 28.0409 12.1241 26.5781 11.0926 24.6098C11.1612 24.4914 11.2185 24.367 11.2647 24.2375C11.6057 23.2672 11.2668 21.995 10.0348 21.467C9.24797 21.1282 7.90717 20.5838 7.90717 20.5838C7.387 20.3264 7.05171 21.1542 7.60566 21.3302C7.60566 21.3302 8.94611 21.8749 9.71802 22.2059C10.5849 22.5782 10.7257 23.3358 10.5034 23.9705C10.3922 24.2873 10.1792 24.5522 9.91464 24.6948C9.65011 24.8377 9.3294 24.8814 8.90344 24.715L6.31677 23.7095C5.6558 23.4542 5.35713 23.1446 5.24584 22.767C5.13349 22.3908 5.21242 21.856 5.55126 21.1542L8.00673 16.091C8.53117 15.0059 9.01082 14.315 9.58469 13.8966C10.1596 13.4781 10.8576 13.2889 11.9395 13.2889ZM11.9395 12.4854C10.7616 12.4854 9.85064 12.7019 9.10966 13.243C8.36869 13.7835 7.82966 14.6038 7.27997 15.739L4.82842 20.8022C4.44086 21.6018 4.27624 22.3371 4.47073 22.9966C4.66735 23.6558 5.22415 24.1518 6.02629 24.4633L8.61295 25.4688C9.22806 25.7078 9.82824 25.6576 10.2962 25.4055C10.3762 25.3629 10.4519 25.3113 10.5241 25.2573C11.6963 27.3312 13.5573 28.8669 15.8151 30.0612C15.9338 30.1241 16.0761 30.1241 16.193 30.0612C18.4508 28.8669 20.3132 27.3312 21.4841 25.2573C21.5577 25.3113 21.632 25.3632 21.7134 25.4055C22.1802 25.6573 22.7822 25.7078 23.3966 25.4688L25.9854 24.4633C26.7875 24.1518 27.3429 23.6555 27.5374 22.9966C27.7319 22.3374 27.5708 21.6018 27.1818 20.8022L24.7299 15.739C24.1799 14.6041 23.6398 13.7835 22.8988 13.243C22.16 12.7022 21.2487 12.4854 20.0711 12.4854H11.9395Z" fill="white"/>
<path fill-rule="evenodd" clip-rule="evenodd" d="M19.3952 20.6624L15.2228 24.8718C15.195 24.8995 15.1616 24.8995 15.1339 24.8718L12.6173 22.3548L13.3984 21.5548L14.8964 23.0567C15.0539 23.2124 15.3095 23.2124 15.467 23.0567L18.5629 19.9587L19.3952 20.6624ZM18.5952 19.1089C18.3396 19.1363 18.1341 19.2494 17.9965 19.3866L15.184 22.1994L13.9709 20.988C13.6395 20.6528 13.0784 20.6528 12.7467 20.988L12.0452 21.7009C11.7117 22.0362 11.7117 22.5866 12.0452 22.9219L14.5675 25.4439C14.9522 25.8289 15.4062 25.8328 15.7899 25.4474L19.9677 21.2309C20.3122 20.8828 20.2414 20.3086 19.9634 20.0142L19.2733 19.3308C19.0763 19.1384 18.8174 19.0848 18.5952 19.1089Z" fill="white"/>
</svg>
