<svg width="32" height="32" viewBox="0 0 32 32" fill="none" xmlns="http://www.w3.org/2000/svg">
<g clip-path="url(#clip0_280_3725)">
<path d="M10.4703 26.2542L7.86881 22.0737L5.51544 22.7308C3.23588 23.3711 1.64681 25.473 1.64681 27.8364V31.3295C1.64681 31.6983 1.9485 32 2.31731 32H12.8371L13.3433 27.3905C12.2866 27.6832 11.0982 27.2667 10.4703 26.2542Z" fill="black"/>
<path d="M26.4845 22.7274L24.1345 22.0703L21.5331 26.2574C20.8921 27.2866 19.6614 27.6854 18.6568 27.3872L19.1629 32.0001H29.6826C30.0514 32.0001 30.3531 31.6984 30.3531 31.3296V27.8364C30.3532 25.473 28.7642 23.3711 26.4845 22.7274Z" fill="black"/>
<path d="M18.6221 25.9205C19.2107 26.3237 20.0171 26.1542 20.3932 25.5483L22.4192 22.2862L19.6676 20.5845L16.0036 24.1253H15.9983L15.6585 24.3575L15.9971 24.1255L12.3336 20.5845L9.58118 22.2861L11.6079 25.5483C11.9839 26.1542 12.7897 26.3236 13.3784 25.9204L13.7245 25.6832L14.7646 26.7233L14.2383 31.5105H17.7616L17.2353 26.7267L18.2777 25.6843L18.6221 25.9205Z" fill="black"/>
<path d="M7.87218 5.818C8.23762 5.4325 8.75725 5.19781 9.32375 5.19781H22.6695C23.236 5.19781 23.7556 5.43244 24.1244 5.82131C24.1356 5.78369 24.6123 5.05006 24.2887 4.14519C23.8003 2.77069 22.7096 2.97194 16.7995 0.165937C16.2933 -0.0553125 15.7134 -0.0553125 15.2071 0.165937C9.20618 3.01369 8.20175 2.77956 7.71462 4.14181C7.38425 5.06569 7.86037 5.77706 7.87218 5.818Z" fill="black"/>
<path d="M22.6695 6.53857H9.32375C9.01537 6.53857 8.74712 6.74639 8.67337 7.04814C8.46794 7.87507 8.44537 8.43245 8.44537 9.16351C8.44537 9.63289 8.63162 10.0894 9.04444 10.4364C9.20269 15.9053 11.0067 17.6243 13.4507 19.7001C13.9817 20.1541 14.6591 20.4039 15.3579 20.4039H16.6519C17.3509 20.4039 18.0282 20.154 18.5586 19.7006C20.9462 17.6658 22.7805 16.0153 22.9576 10.4339C23.3213 10.1251 23.5577 9.66614 23.5577 9.14001C23.5577 8.55001 23.5577 7.99682 23.3197 7.04476C23.2462 6.74639 22.9779 6.53857 22.6695 6.53857ZM17.6882 18.6806C17.3997 18.9273 17.0317 19.063 16.652 19.063H15.358C14.9782 19.063 14.6102 18.9273 14.3204 18.6793C12.3971 17.047 10.6422 15.7354 10.4003 10.8329H10.4567L12.029 12.3583C12.7129 13.022 13.6147 13.3874 14.5701 13.3874H17.4364C18.3884 13.3874 19.2902 13.022 19.9741 12.3616L21.553 10.8329H21.6005C21.3565 15.5252 19.8131 16.871 17.6882 18.6806Z" fill="black"/>
</g>
<defs>
<clipPath id="clip0_280_3725">
<rect width="32" height="32" fill="white"/>
</clipPath>
</defs>
</svg>
