<svg width="34" height="34" viewBox="0 0 34 34" fill="none" xmlns="http://www.w3.org/2000/svg">
<path d="M0 6.71484C0 4.18838 1.30939 1.54441 3.35742 0C3.35742 1.41851 4.51573 3.35742 6.71484 3.35742C8.05051 3.35742 9.33147 3.88801 10.2759 4.83247C11.2204 5.77693 11.751 7.05789 11.751 8.39355C11.751 9.04154 11.6184 9.65594 11.3951 10.225C12.6402 11.2134 13.8664 12.2253 15.0731 13.2601L11.5814 16.7519C10.5469 15.5449 9.53502 14.3186 8.54632 13.0738C7.96332 13.3055 7.34217 13.4262 6.71484 13.4297C3.00489 13.4297 0 10.4248 0 6.71484ZM20.3997 18.2107L22.6508 15.9595C23.6934 16.4959 24.8476 16.7795 26.02 16.7871C28.0235 16.7871 29.945 15.9912 31.3616 14.5745C32.7783 13.1578 33.5742 11.2364 33.5742 9.23291C33.5742 8.01584 33.2586 6.88104 32.7466 5.86374L26.8594 11.751L23.502 8.39355L29.3892 2.50632C28.3466 1.96987 27.1925 1.68636 26.02 1.67871C24.0165 1.67871 22.0951 2.4746 20.6784 3.89128C19.2617 5.30797 18.4658 7.22941 18.4658 9.23291C18.4658 10.45 18.7814 11.5848 19.2934 12.6021L1.67871 30.2168L5.03613 33.5742L16.5319 22.0784C19.6948 25.3211 23.0451 28.3754 26.5656 31.2257L28.9578 33.1545L31.4758 30.6365L29.547 28.2443C26.6967 24.7238 23.6424 21.3735 20.3997 18.2107Z" fill="white"/>
</svg>
