<svg width="48" height="48" viewBox="0 0 48 48" fill="none" xmlns="http://www.w3.org/2000/svg">
<path d="M31.5 12.024C31.5024 11.0373 31.3102 10.0598 30.9344 9.14744C30.5586 8.23508 30.0066 7.40577 29.31 6.70694C28.6134 6.00811 27.7859 5.45349 26.8747 5.0748C25.9636 4.69611 24.9867 4.50079 24 4.5C19.86 4.5 16.5 7.872 16.5 12.024V12H4.5V45H43.5V12H31.5V12.024Z" fill="#FFDEA7"/>
<path d="M16.5 12V45H15V12H16.5ZM33 12H31.5V45H33V12Z" fill="#F3AD61"/>
<path d="M30 30H18V42H30V30Z" fill="#F3C07B"/>
<path d="M9 31.959V35.5335C9 35.7885 8.79 36 8.52 36H6.465C6.21 36 6 35.79 6 35.535V31.959C6 31.704 6.21 31.494 6.465 31.494H8.535C8.79 31.494 9 31.704 9 31.959ZM13.5 31.959V35.5335C13.5 35.7885 13.29 36 13.02 36H10.965C10.71 36 10.5 35.79 10.5 35.535V31.959C10.5 31.704 10.71 31.494 10.965 31.494H13.035C13.29 31.494 13.5 31.704 13.5 31.959ZM9 24.447V28.023C9 28.278 8.79 28.488 8.52 28.488H6.465C6.21 28.488 6 28.278 6 28.023V24.447C6 24.192 6.21 23.982 6.465 23.982H8.535C8.79 23.982 9 24.192 9 24.447ZM13.5 24.447V28.023C13.5 28.278 13.29 28.488 13.02 28.488H10.965C10.71 28.488 10.5 28.278 10.5 28.023V24.447C10.5 24.192 10.71 23.982 10.965 23.982H13.035C13.29 23.982 13.5 24.192 13.5 24.447ZM9 16.965V20.541C9 20.796 8.79 21.006 8.52 21.006H6.465C6.21 21.006 6 20.796 6 20.541V16.965C6 16.71 6.21 16.5 6.465 16.5H8.535C8.79 16.5 9 16.71 9 16.965ZM13.5 16.965V20.541C13.5 20.796 13.29 21.006 13.02 21.006H10.965C10.71 21.006 10.5 20.796 10.5 20.541V16.965C10.5 16.71 10.71 16.5 10.965 16.5H13.035C13.29 16.5 13.5 16.71 13.5 16.965ZM37.491 31.959V35.5335C37.491 35.7885 37.281 36 37.026 36H34.965C34.9038 36.0002 34.8432 35.9883 34.7866 35.965C34.73 35.9418 34.6786 35.9075 34.6352 35.8643C34.5919 35.8211 34.5575 35.7698 34.534 35.7133C34.5106 35.6568 34.4985 35.5962 34.4985 35.535V31.959C34.4985 31.704 34.7085 31.494 34.9635 31.494H37.023C37.278 31.494 37.491 31.704 37.491 31.959ZM42 31.959V35.5335C42 35.7885 41.79 36 41.535 36H39.4755C39.4143 36.0002 39.3537 35.9883 39.2971 35.965C39.2405 35.9418 39.1891 35.9075 39.1457 35.8643C39.1024 35.8211 39.068 35.7698 39.0445 35.7133C39.0211 35.6568 39.009 35.5962 39.009 35.535V31.959C39.009 31.704 39.219 31.494 39.474 31.494H41.5335C41.7885 31.494 42 31.704 42 31.959ZM37.491 24.447V28.023C37.491 28.278 37.281 28.488 37.026 28.488H34.965C34.9038 28.4882 34.8432 28.4763 34.7866 28.453C34.73 28.4298 34.6786 28.3955 34.6352 28.3523C34.5919 28.3091 34.5575 28.2578 34.534 28.2013C34.5106 28.1448 34.4985 28.0842 34.4985 28.023V24.447C34.4985 24.192 34.7085 23.982 34.9635 23.982H37.023C37.278 23.982 37.491 24.192 37.491 24.447ZM42 24.447V28.023C42 28.278 41.79 28.488 41.535 28.488H39.4755C39.4143 28.4882 39.3537 28.4763 39.2971 28.453C39.2405 28.4298 39.1891 28.3955 39.1457 28.3523C39.1024 28.3091 39.068 28.2578 39.0445 28.2013C39.0211 28.1448 39.009 28.0842 39.009 28.023V24.447C39.009 24.192 39.219 23.982 39.474 23.982H41.5335C41.7885 23.982 42 24.192 42 24.447ZM37.491 16.965V20.541C37.491 20.796 37.281 21.006 37.026 21.006H34.965C34.9038 21.0062 34.8432 20.9943 34.7866 20.971C34.73 20.9478 34.6786 20.9135 34.6352 20.8703C34.5919 20.8271 34.5575 20.7758 34.534 20.7193C34.5106 20.6628 34.4985 20.6022 34.4985 20.541V16.965C34.4985 16.71 34.7085 16.5 34.9635 16.5H37.023C37.278 16.5 37.491 16.71 37.491 16.965ZM42 16.965V20.541C42 20.796 41.79 21.006 41.535 21.006H39.4755C39.4143 21.0062 39.3537 20.9943 39.2971 20.971C39.2405 20.9478 39.1891 20.9135 39.1457 20.8703C39.1024 20.8271 39.068 20.7758 39.0445 20.7193C39.0211 20.6628 39.009 20.6022 39.009 20.541V16.965C39.009 16.71 39.219 16.5 39.474 16.5H41.5335C41.7885 16.5 42 16.71 42 16.965ZM22.5 23.535V19.965C22.5 19.71 22.29 19.5 22.032 19.5H19.968C19.8445 19.5004 19.7262 19.5494 19.6386 19.6364C19.551 19.7235 19.5012 19.8415 19.5 19.965V23.535C19.5 23.79 19.71 24 19.968 24H22.032C22.2885 24 22.5 23.79 22.5 23.535ZM28.5 19.965V23.535C28.5 23.79 28.29 24 28.032 24H25.968C25.9067 24.0004 25.8459 23.9887 25.7891 23.9655C25.7324 23.9423 25.6808 23.9081 25.6373 23.8649C25.5938 23.8217 25.5592 23.7703 25.5357 23.7136C25.5121 23.657 25.5 23.5963 25.5 23.535V19.965C25.5 19.71 25.71 19.5 25.968 19.5H28.032C28.2885 19.5 28.5 19.71 28.5 19.965ZM22.7055 40.5H20.0445C19.9722 40.4996 19.9007 40.4849 19.8342 40.4568C19.7676 40.4286 19.7072 40.3875 19.6566 40.3359C19.606 40.2843 19.5661 40.2232 19.5392 40.1561C19.5123 40.089 19.499 40.0173 19.5 39.945V30.555C19.5 30.255 19.7355 30 20.0445 30H22.7055C22.9995 30 23.25 30.24 23.25 30.555V39.945C23.25 40.26 22.9995 40.5 22.7055 40.5ZM25.2945 40.5H27.9555C28.2495 40.5 28.5 40.26 28.5 39.945V30.555C28.5 30.24 28.2495 30 27.9555 30H25.2945C25.2222 30.0004 25.1507 30.0151 25.0842 30.0432C25.0176 30.0714 24.9573 30.1125 24.9066 30.1641C24.856 30.2157 24.8161 30.2768 24.7892 30.3439C24.7623 30.411 24.749 30.4827 24.75 30.555V39.945C24.75 40.26 25.0005 40.5 25.2945 40.5Z" fill="#83CBFF"/>
<path d="M31.725 7.53H41.76C43.1415 7.53 44.307 8.5215 44.775 9.9135C44.985 10.5405 45.0675 11.1585 44.5425 11.6595C44.2933 11.8958 43.9634 12.0283 43.62 12.03H31.44L31.431 12.003C31.418 11.975 31.411 11.944 31.41 11.91C31.41 11.445 31.365 10.98 31.275 10.53C31.065 9.42 30.585 8.415 29.94 7.53C29.2549 6.59302 28.3588 5.83049 27.3242 5.3041C26.2897 4.77771 25.1458 4.50225 23.985 4.5C21.54 4.5 19.38 5.7 18.03 7.53C17.385 8.415 16.905 9.42 16.695 10.53C16.605 10.98 16.56 11.445 16.56 11.91C16.5592 11.9308 16.5541 11.9513 16.545 11.97C16.536 11.988 16.531 12.008 16.53 12.03H4.35001C4.15512 12.0302 3.96254 11.9878 3.78581 11.9056C3.60908 11.8235 3.45248 11.7036 3.32701 11.5545C2.93701 11.0955 2.98651 10.5915 3.14251 10.0485C3.55951 8.586 4.75351 7.53 6.18001 7.53H16.215C16.9919 6.15688 18.1189 5.01423 19.4812 4.21847C20.8435 3.42271 22.3923 3.00227 23.97 3C25.5477 3.00227 27.0965 3.42271 28.4588 4.21847C29.8211 5.01423 30.9481 6.15688 31.725 7.53ZM26.2665 9H26.2365C26.0421 9.00079 25.8559 9.07858 25.7187 9.21633C25.5815 9.35409 25.5045 9.54058 25.5045 9.735V12H22.497V9.735C22.497 9.54007 22.4196 9.35312 22.2817 9.21528C22.1439 9.07744 21.9569 9 21.762 9H21.732C21.5376 9.00079 21.3514 9.07858 21.2142 9.21633C21.077 9.35409 21 9.54058 21 9.735V15.765C21 16.17 21.33 16.5 21.7335 16.5H21.7635C21.9582 16.4996 22.1447 16.422 22.2823 16.2842C22.4198 16.1464 22.497 15.9597 22.497 15.765V13.515H25.5045V15.765C25.5045 16.17 25.833 16.5 26.2365 16.5H26.2665C26.4612 16.4996 26.6477 16.422 26.7853 16.2842C26.9228 16.1464 27 15.9597 27 15.765V9.735C27 9.54033 26.9228 9.3536 26.7853 9.21581C26.6477 9.07801 26.4612 9.0004 26.2665 9ZM32.985 45H15V44.43C15 43.92 15.42 43.5 15.9315 43.5H16.5V42.849C16.5 42.3795 16.875 42 17.34 42H30.66C31.125 42 31.5 42.3795 31.5 42.849V43.5H32.0685C32.5785 43.5 33 43.92 33 44.43V45H32.985ZM30.69 30.54C30.684 30.532 30.6815 30.522 30.6825 30.51C30.6835 30.498 30.681 30.488 30.675 30.48C29.99 29.3236 29.0156 28.3656 27.8478 27.7001C26.68 27.0347 25.3591 26.6849 24.015 26.685C22.6709 26.6849 21.35 27.0347 20.1822 27.7001C19.0144 28.3656 18.0401 29.3236 17.355 30.48V30.4935C17.354 30.4965 17.349 30.502 17.34 30.51C17.295 30.6 17.25 30.705 17.25 30.825C17.25 31.2 17.553 31.5 17.931 31.5H30.069C30.1581 31.5008 30.2466 31.4839 30.3292 31.4503C30.4117 31.4168 30.4869 31.3672 30.5502 31.3044C30.6135 31.2417 30.6638 31.167 30.6981 31.0847C30.7324 31.0024 30.75 30.9141 30.75 30.825C30.7537 30.7265 30.7331 30.6286 30.69 30.54Z" fill="#F8312F"/>
</svg>
