<svg width="36" height="36" viewBox="0 0 36 36" fill="none" xmlns="http://www.w3.org/2000/svg">
<g clip-path="url(#clip0_274_3407)">
<path d="M27.5625 0H8.4375C3.7776 0 0 3.7776 0 8.4375V27.5625C0 32.2224 3.7776 36 8.4375 36H27.5625C32.2224 36 36 32.2224 36 27.5625V8.4375C36 3.7776 32.2224 0 27.5625 0Z" fill="url(#paint0_radial_274_3407)"/>
<path d="M27.5625 0H8.4375C3.7776 0 0 3.7776 0 8.4375V27.5625C0 32.2224 3.7776 36 8.4375 36H27.5625C32.2224 36 36 32.2224 36 27.5625V8.4375C36 3.7776 32.2224 0 27.5625 0Z" fill="url(#paint1_radial_274_3407)"/>
<path d="M18.0011 6.32031C14.8291 6.32031 14.4309 6.33421 13.1852 6.39086C11.9417 6.44785 11.093 6.64466 10.3504 6.9335C9.5821 7.2318 8.93049 7.63089 8.28133 8.28028C7.63159 8.92955 7.2325 9.58116 6.93326 10.3491C6.64361 11.0919 6.44657 11.941 6.39062 13.1839C6.33491 14.4298 6.32031 14.828 6.32031 18.0001C6.32031 21.1722 6.33433 21.5691 6.39086 22.8148C6.44809 24.0583 6.64489 24.907 6.9335 25.6496C7.23203 26.4179 7.63112 27.0695 8.28051 27.7187C8.92955 28.3684 9.58116 28.7684 10.3489 29.0667C11.092 29.3556 11.9409 29.5524 13.1841 29.6094C14.43 29.666 14.8278 29.6799 17.9997 29.6799C21.172 29.6799 21.5688 29.666 22.8146 29.6094C24.058 29.5524 24.9077 29.3556 25.6509 29.0667C26.4188 28.7684 27.0695 28.3684 27.7184 27.7187C28.3682 27.0695 28.7672 26.4179 29.0665 25.65C29.3536 24.907 29.5507 24.058 29.6091 22.8151C29.6651 21.5693 29.6797 21.1722 29.6797 18.0001C29.6797 14.828 29.6651 14.43 29.6091 13.1841C29.5507 11.9407 29.3536 11.092 29.0665 10.3495C28.7672 9.58116 28.3682 8.92955 27.7184 8.28028C27.0688 7.63066 26.4191 7.23156 25.6502 6.93361C24.9056 6.64466 24.0564 6.44774 22.813 6.39086C21.5671 6.33421 21.1705 6.32031 17.9974 6.32031H18.0011ZM16.9533 8.42511C17.2643 8.42464 17.6113 8.42511 18.0011 8.42511C21.1196 8.42511 21.4892 8.43632 22.7207 8.49227C23.8595 8.54436 24.4776 8.73462 24.8893 8.89452C25.4344 9.10615 25.8229 9.35925 26.2315 9.76816C26.6403 10.1769 26.8933 10.5662 27.1055 11.1113C27.2654 11.5224 27.4559 12.1405 27.5077 13.2793C27.5637 14.5106 27.5758 14.8804 27.5758 17.9974C27.5758 21.1145 27.5637 21.4844 27.5077 22.7156C27.4556 23.8543 27.2654 24.4724 27.1055 24.8837C26.8938 25.4287 26.6403 25.8169 26.2315 26.2254C25.8227 26.6342 25.4346 26.8872 24.8893 27.0989C24.478 27.2595 23.8595 27.4493 22.7207 27.5014C21.4894 27.5574 21.1196 27.5695 18.0011 27.5695C14.8823 27.5695 14.5127 27.5574 13.2815 27.5014C12.1428 27.4489 11.5247 27.2586 11.1126 27.0987C10.5676 26.887 10.1782 26.634 9.76944 26.2252C9.36065 25.8164 9.10767 25.428 8.89545 24.8827C8.73556 24.4715 8.54506 23.8534 8.4932 22.7146C8.43726 21.4833 8.42604 21.1136 8.42604 17.9945C8.42604 14.8755 8.43726 14.5077 8.4932 13.2764C8.54529 12.1376 8.73556 11.5195 8.89545 11.1078C9.1072 10.5627 9.36065 10.1734 9.76956 9.76465C10.1785 9.35586 10.5676 9.10276 11.1127 8.89066C11.5244 8.73007 12.1428 8.54027 13.2815 8.48795C14.359 8.43924 14.7765 8.42464 16.9533 8.42219V8.42511ZM24.2357 10.3644C23.4619 10.3644 22.8341 10.9916 22.8341 11.7655C22.8341 12.5393 23.4619 13.1671 24.2357 13.1671C25.0094 13.1671 25.6372 12.5393 25.6372 11.7655C25.6372 10.9917 25.0094 10.3639 24.2357 10.3639V10.3644ZM18.0011 12.002C14.6887 12.002 12.0031 14.6876 12.0031 18.0001C12.0031 21.3126 14.6887 23.9969 18.0011 23.9969C21.3135 23.9969 23.9982 21.3126 23.9982 18.0001C23.9982 14.6878 21.3133 12.002 18.0008 12.002H18.0011ZM18.0011 14.1068C20.1512 14.1068 21.8944 15.8498 21.8944 18.0001C21.8944 20.1502 20.1512 21.8934 18.0011 21.8934C15.8509 21.8934 14.1079 20.1502 14.1079 18.0001C14.1079 15.8498 15.8508 14.1068 18.0011 14.1068Z" fill="white"/>
</g>
<defs>
<radialGradient id="paint0_radial_274_3407" cx="0" cy="0" r="1" gradientUnits="userSpaceOnUse" gradientTransform="translate(9.5625 38.7727) rotate(-90) scale(35.6787 33.184)">
<stop stop-color="#FFDD55"/>
<stop offset="0.1" stop-color="#FFDD55"/>
<stop offset="0.5" stop-color="#FF543E"/>
<stop offset="1" stop-color="#C837AB"/>
</radialGradient>
<radialGradient id="paint1_radial_274_3407" cx="0" cy="0" r="1" gradientUnits="userSpaceOnUse" gradientTransform="translate(-6.03012 2.59335) rotate(78.68) scale(15.9486 65.7405)">
<stop stop-color="#3771C8"/>
<stop offset="0.128" stop-color="#3771C8"/>
<stop offset="1" stop-color="#6600FF" stop-opacity="0"/>
</radialGradient>
<clipPath id="clip0_274_3407">
<rect width="36" height="36" rx="18" fill="white"/>
</clipPath>
</defs>
</svg>
