<svg width="38" height="38" viewBox="0 0 38 38" fill="none" xmlns="http://www.w3.org/2000/svg">
<path d="M0 8C0 3.58172 3.58172 0 8 0H30C34.4183 0 38 3.58172 38 8V30C38 34.4183 34.4183 38 30 38H8C3.58172 38 0 34.4183 0 30V8Z" fill="white"/>
<path d="M12.5833 23.5833H10.75C10.2638 23.5833 9.79745 23.3902 9.45364 23.0464C9.10982 22.7025 8.91666 22.2362 8.91666 21.75V16.25C8.91666 15.7638 9.10982 15.2975 9.45364 14.9536C9.79745 14.6098 10.2638 14.4167 10.75 14.4167H11.6667L13.5 10.75H22.6667L24.5 14.4167H25.4167C25.9029 14.4167 26.3692 14.6098 26.713 14.9536C27.0568 15.2975 27.25 15.7638 27.25 16.25V21.75C27.25 22.2362 27.0568 22.7025 26.713 23.0464C26.3692 23.3902 25.9029 23.5833 25.4167 23.5833H23.5833" stroke="black" stroke-width="1.83333" stroke-linecap="round" stroke-linejoin="round"/>
<path d="M14.875 26.3333C16.1407 26.3333 17.1667 25.3073 17.1667 24.0417C17.1667 22.776 16.1407 21.75 14.875 21.75C13.6093 21.75 12.5833 22.776 12.5833 24.0417C12.5833 25.3073 13.6093 26.3333 14.875 26.3333Z" stroke="black" stroke-width="1.83333"/>
<path d="M23.125 26.3333C24.3907 26.3333 25.4167 25.3073 25.4167 24.0417C25.4167 22.776 24.3907 21.75 23.125 21.75C21.8593 21.75 20.8333 22.776 20.8333 24.0417C20.8333 25.3073 21.8593 26.3333 23.125 26.3333Z" stroke="black" stroke-width="1.83333"/>
</svg>
