<svg width="32" height="32" viewBox="0 0 32 32" fill="none" xmlns="http://www.w3.org/2000/svg">
<path d="M29.1875 5.6875H15.6624L15.2606 2.46362C15.085 1.05912 13.8853 0 12.4698 0H2.8125C1.26169 0 0 1.26169 0 2.8125V23.5C0 25.0508 1.26169 26.3125 2.8125 26.3125H10.7177L11.1144 29.5364C11.2897 30.9381 12.4894 32 13.9052 32H29.1875C30.7383 32 32 30.7383 32 29.1875V8.5C32 6.94919 30.7383 5.6875 29.1875 5.6875ZM2.8125 24.4375C2.29556 24.4375 1.875 24.0169 1.875 23.5V2.8125C1.875 2.29556 2.29556 1.875 2.8125 1.875H12.4698C12.9416 1.875 13.3416 2.228 13.4 2.69587C13.5359 3.78562 15.9755 23.3565 16.1103 24.4375H2.8125ZM12.9202 28.8594L12.6068 26.3125H15.1221L12.9202 28.8594ZM30.125 29.1875C30.125 29.7044 29.7044 30.125 29.1875 30.125H14.3046L17.8736 25.9967C18.0563 25.7906 18.1382 25.5171 18.1004 25.2452L15.8962 7.5625H29.1875C29.7044 7.5625 30.125 7.98306 30.125 8.5V29.1875Z" fill="black"/>
</svg>
