<svg width="36" height="36" viewBox="0 0 36 36" fill="none" xmlns="http://www.w3.org/2000/svg">
<g clip-path="url(#clip0_274_3412)">
<path d="M27.5625 0H8.4375C3.7776 0 0 3.7776 0 8.4375V27.5625C0 32.2224 3.7776 36 8.4375 36H27.5625C32.2224 36 36 32.2224 36 27.5625V8.4375C36 3.7776 32.2224 0 27.5625 0Z" fill="#0A66C2"/>
<path d="M24.1175 27.6911H27.2747C27.3891 27.6911 27.4988 27.6456 27.5797 27.5647C27.6606 27.4838 27.7061 27.3741 27.7061 27.2597L27.7077 20.5892C27.7077 17.1027 26.9565 14.4229 22.8821 14.4229C21.3333 14.3653 19.8727 15.1637 19.0846 16.4969C19.0807 16.5033 19.0748 16.5084 19.0679 16.5112C19.0609 16.514 19.0532 16.5145 19.0459 16.5125C19.0386 16.5106 19.0322 16.5063 19.0276 16.5003C19.023 16.4943 19.0205 16.487 19.0204 16.4795V15.1762C19.0204 15.0617 18.9749 14.952 18.894 14.8711C18.8131 14.7902 18.7034 14.7447 18.5889 14.7447H15.5928C15.4784 14.7447 15.3686 14.7902 15.2877 14.8711C15.2068 14.952 15.1613 15.0617 15.1613 15.1762V27.2591C15.1613 27.3735 15.2068 27.4832 15.2877 27.5641C15.3686 27.6451 15.4784 27.6905 15.5928 27.6905H18.7498C18.8642 27.6905 18.9739 27.6451 19.0548 27.5641C19.1358 27.4832 19.1812 27.3735 19.1812 27.2591V21.2863C19.1812 19.5975 19.5016 17.962 21.5953 17.962C23.6593 17.962 23.686 19.8945 23.686 21.3957V27.2596C23.686 27.374 23.7315 27.4838 23.8124 27.5647C23.8933 27.6456 24.0031 27.6911 24.1175 27.6911ZM8.29227 10.6424C8.29227 11.9221 9.34577 12.9751 10.6256 12.9751C11.9051 12.975 12.9579 11.9214 12.9579 10.6419C12.9577 9.36243 11.9047 8.30957 10.6251 8.30957C9.34523 8.30957 8.29227 9.36275 8.29227 10.6424ZM9.04289 27.6911H12.2041C12.3185 27.6911 12.4282 27.6456 12.5091 27.5647C12.59 27.4838 12.6355 27.374 12.6355 27.2596V15.1762C12.6355 15.0617 12.59 14.952 12.5091 14.8711C12.4282 14.7902 12.3185 14.7447 12.2041 14.7447H9.04289C8.92846 14.7447 8.81872 14.7902 8.73781 14.8711C8.65689 14.952 8.61144 15.0617 8.61144 15.1762V27.2596C8.61144 27.374 8.65689 27.4838 8.73781 27.5647C8.81872 27.6456 8.92846 27.6911 9.04289 27.6911Z" fill="white"/>
</g>
<defs>
<clipPath id="clip0_274_3412">
<rect width="36" height="36" rx="18" fill="white"/>
</clipPath>
</defs>
</svg>
