<svg width="48" height="48" viewBox="0 0 48 48" fill="none" xmlns="http://www.w3.org/2000/svg">
<path d="M42 37.5C42 42 33.942 45 24 45C14.058 45 6 42 6 37.5C6 33 14.058 30 24 30C33.942 30 42 33 42 37.5Z" fill="url(#paint0_radial_274_2558)"/>
<path d="M24 3C20.0218 3 16.2064 4.58035 13.3934 7.3934C10.5804 10.2064 9 14.0218 9 18C9 21.432 10.95 25.05 13.179 28.116C15.45 31.245 18.21 34.074 20.217 35.976C21.2354 36.9504 22.5905 37.4943 24 37.4943C25.4095 37.4943 26.7646 36.9504 27.783 35.976C29.79 34.074 32.55 31.245 34.821 28.116C37.047 25.05 39 21.432 39 18C39 16.0302 38.612 14.0796 37.8582 12.2597C37.1044 10.4399 35.9995 8.78628 34.6066 7.3934C33.2137 6.00052 31.5601 4.89563 29.7402 4.14181C27.9204 3.38799 25.9698 3 24 3Z" fill="url(#paint1_linear_274_2558)"/>
<path d="M28.5 18C28.5 19.1935 28.0259 20.3381 27.182 21.182C26.3381 22.0259 25.1935 22.5 24 22.5C22.8065 22.5 21.6619 22.0259 20.818 21.182C19.9741 20.3381 19.5 19.1935 19.5 18C19.5 16.8065 19.9741 15.6619 20.818 14.818C21.6619 13.9741 22.8065 13.5 24 13.5C25.1935 13.5 26.3381 13.9741 27.182 14.818C28.0259 15.6619 28.5 16.8065 28.5 18Z" fill="url(#paint2_linear_274_2558)"/>
<defs>
<radialGradient id="paint0_radial_274_2558" cx="0" cy="0" r="1" gradientUnits="userSpaceOnUse" gradientTransform="translate(22.71 34.998) rotate(-10.024) scale(28.7242 11.9894)">
<stop stop-color="#7B7BFF"/>
<stop offset="0.502" stop-color="#A3A3FF"/>
<stop offset="1" stop-color="#CEB0FF"/>
</radialGradient>
<linearGradient id="paint1_linear_274_2558" x1="2.439" y1="-6.855" x2="26.907" y2="32.205" gradientUnits="userSpaceOnUse">
<stop stop-color="#F97DBD"/>
<stop offset="1" stop-color="#D7257D"/>
</linearGradient>
<linearGradient id="paint2_linear_274_2558" x1="20.022" y1="18.399" x2="24.708" y2="23.271" gradientUnits="userSpaceOnUse">
<stop stop-color="#FDFDFD"/>
<stop offset="1" stop-color="#FECBE6"/>
</linearGradient>
</defs>
</svg>
