<svg width="32" height="32" viewBox="0 0 32 32" fill="none" xmlns="http://www.w3.org/2000/svg">
<path fill-rule="evenodd" clip-rule="evenodd" d="M17.3333 18.0002H15.3333C14.8027 18.0002 14.294 18.2108 13.9193 18.5862C13.544 18.9608 13.3333 19.4695 13.3333 20.0002V28.6668C13.3333 29.1975 13.544 29.7062 13.9193 30.0808C14.294 30.4562 14.8027 30.6668 15.3333 30.6668H27.3333C27.864 30.6668 28.3727 30.4562 28.7473 30.0808C29.1227 29.7062 29.3333 29.1975 29.3333 28.6668V20.0002C29.3333 19.4695 29.1227 18.9608 28.7473 18.5862C28.3727 18.2108 27.864 18.0002 27.3333 18.0002H25.3333V17.3335C25.3333 16.8028 25.1227 16.2942 24.7473 15.9195C24.3727 15.5442 23.864 15.3335 23.3333 15.3335C22.1713 15.3335 20.4953 15.3335 19.3333 15.3335C18.8027 15.3335 18.294 15.5442 17.9193 15.9195C17.544 16.2942 17.3333 16.8028 17.3333 17.3335V18.0002ZM25.3333 21.3335V27.3335C25.3333 27.7015 25.632 28.0002 26 28.0002C26.368 28.0002 26.6667 27.7015 26.6667 27.3335V21.3335C26.6667 20.9655 26.368 20.6668 26 20.6668C25.632 20.6668 25.3333 20.9655 25.3333 21.3335ZM16 21.3335V27.3335C16 27.7015 16.2987 28.0002 16.6667 28.0002C17.0347 28.0002 17.3333 27.7015 17.3333 27.3335V21.3335C17.3333 20.9655 17.0347 20.6668 16.6667 20.6668C16.2987 20.6668 16 20.9655 16 21.3335ZM24 17.3335V18.0002H18.6667V17.3335C18.6667 17.1568 18.7367 16.9868 18.862 16.8622C18.9867 16.7368 19.1567 16.6668 19.3333 16.6668H23.3333C23.51 16.6668 23.68 16.7368 23.8047 16.8622C23.93 16.9868 24 17.1568 24 17.3335Z" fill="black"/>
<path fill-rule="evenodd" clip-rule="evenodd" d="M8 5.3335H4.66666C4.136 5.3335 3.62733 5.54416 3.25266 5.9195C2.87733 6.29416 2.66666 6.80283 2.66666 7.3335V25.3335C2.66666 26.4382 3.562 27.3335 4.66666 27.3335H12V20.0002C12 19.1162 12.3513 18.2682 12.976 17.6428C13.6013 17.0182 14.4493 16.6668 15.3333 16.6668H16.0673C16.1973 16.0315 16.5107 15.4422 16.976 14.9762C17.6013 14.3515 18.4493 14.0002 19.3333 14.0002H20V7.3335C20 6.80283 19.7893 6.29416 19.414 5.9195C19.0393 5.54416 18.5307 5.3335 18 5.3335H14.6667V3.3335C14.6667 2.22883 13.7713 1.3335 12.6667 1.3335H10C8.89533 1.3335 8 2.22883 8 3.3335V5.3335ZM5.33333 8.66683V24.0002C5.33333 24.3682 5.632 24.6668 6 24.6668C6.368 24.6668 6.66666 24.3682 6.66666 24.0002V8.66683C6.66666 8.29883 6.368 8.00016 6 8.00016C5.632 8.00016 5.33333 8.29883 5.33333 8.66683ZM13.3333 5.3335H9.33333V3.3335C9.33333 2.9655 9.632 2.66683 10 2.66683H12.6667C13.0347 2.66683 13.3333 2.9655 13.3333 3.3335V5.3335Z" fill="black"/>
<path fill-rule="evenodd" clip-rule="evenodd" d="M9.33333 28.667H5.33333C5.33333 29.7717 6.22866 30.667 7.33333 30.667C8.43799 30.667 9.33333 29.7717 9.33333 28.667Z" fill="black"/>
</svg>
