<svg width="48" height="48" viewBox="0 0 48 48" fill="none" xmlns="http://www.w3.org/2000/svg">
<path d="M0 12C0 5.37258 5.37258 0 12 0H36C42.6274 0 48 5.37258 48 12V36C48 42.6274 42.6274 48 36 48H12C5.37258 48 0 42.6274 0 36V12Z" fill="#FE9A00"/>
<path d="M17 31H18.425L28.2 21.225L26.775 19.8L17 29.575V31ZM16 33C15.7167 33 15.4793 32.904 15.288 32.712C15.0967 32.52 15.0007 32.2827 15 32V29.575C15 29.3083 15.05 29.054 15.15 28.812C15.25 28.57 15.3917 28.3577 15.575 28.175L28.2 15.575C28.4 15.3917 28.621 15.25 28.863 15.15C29.105 15.05 29.359 15 29.625 15C29.891 15 30.1493 15.05 30.4 15.15C30.6507 15.25 30.8673 15.4 31.05 15.6L32.425 17C32.625 17.1833 32.7707 17.4 32.862 17.65C32.9533 17.9 32.9993 18.15 33 18.4C33 18.6667 32.954 18.921 32.862 19.163C32.77 19.405 32.6243 19.6257 32.425 19.825L19.825 32.425C19.6417 32.6083 19.429 32.75 19.187 32.85C18.945 32.95 18.691 33 18.425 33H16ZM27.475 20.525L26.775 19.8L28.2 21.225L27.475 20.525Z" fill="white"/>
</svg>
