<svg width="32" height="32" viewBox="0 0 32 32" fill="none" xmlns="http://www.w3.org/2000/svg">
<g clip-path="url(#clip0_280_3802)">
<path d="M21.3989 16.9597C19.959 14.7134 17.5066 13.3721 14.8386 13.3721C12.1709 13.3721 9.71826 14.7134 8.27856 16.9597L4.80884 22.3726C4.23315 23.2708 3.96753 24.3081 4.04052 25.3723C4.11352 26.4368 4.51855 27.428 5.21167 28.2393C5.90527 29.0503 6.82177 29.6045 7.86206 29.8423C8.90234 30.0798 9.96875 29.9785 10.9458 29.5491L11.0095 29.5208C13.4683 28.4609 16.2786 28.4705 18.7312 29.5491C19.3638 29.8271 20.0339 29.9678 20.7102 29.9678C21.0779 29.9678 21.4478 29.926 21.8142 29.8425C22.8545 29.605 23.771 29.0508 24.4648 28.2397C25.1582 27.4287 25.5635 26.4373 25.6367 25.3728C25.71 24.3081 25.4443 23.2708 24.8686 22.3723L21.3989 16.9597ZM23.0393 27.0205C22.1567 28.0522 20.729 28.3784 19.4863 27.832C18.0093 27.1824 16.4238 26.8577 14.8379 26.8577C13.2534 26.8577 11.6682 27.1821 10.1921 27.8311L10.1501 27.8496C8.91699 28.3711 7.51025 28.0408 6.63745 27.0205C5.75586 25.9885 5.65552 24.5276 6.38794 23.3848L9.85791 17.9719C10.9512 16.2664 12.813 15.248 14.8386 15.248C16.8643 15.248 18.7263 16.2664 19.8198 17.9719L23.2893 23.3845C24.022 24.5278 23.9214 25.989 23.0393 27.0205Z" fill="black"/>
<path d="M5.7434 16.9521C6.77563 16.5556 7.55981 15.7239 7.95165 14.6098C8.32421 13.5498 8.2937 12.353 7.86523 11.2397C7.43652 10.1272 6.65673 9.21898 5.66967 8.68211C4.63232 8.11839 3.49292 8.02659 2.4624 8.42381C0.389156 9.22093 -0.56226 11.7829 0.341792 14.1362C1.06396 16.0093 2.74829 17.1916 4.45117 17.1916C4.88598 17.1916 5.32202 17.1145 5.7434 16.9521ZM2.09228 13.4624C1.55957 12.0757 2.02758 10.6006 3.13623 10.1743C3.33642 10.0971 3.54809 10.0588 3.76416 10.0588C4.09765 10.0588 4.44213 10.1499 4.77368 10.3303C5.36987 10.6543 5.84619 11.2168 6.11474 11.9138C6.38305 12.6113 6.40698 13.3476 6.18188 13.9875C5.97558 14.574 5.58081 15.0051 5.07055 15.2012L5.06958 15.2016C3.9624 15.6284 2.6267 14.8479 2.09228 13.4624Z" fill="black"/>
<path d="M12.4758 12.7117C15.0676 12.7117 17.1763 10.3093 17.1763 7.35644C17.1763 4.40283 15.0676 2 12.4758 2C9.88428 2 7.77588 4.40283 7.77588 7.35644C7.77588 10.3093 9.88428 12.7117 12.4758 12.7117ZM12.4758 3.87573C14.0332 3.87573 15.3005 5.43726 15.3005 7.35644C15.3005 9.2749 14.0332 10.8359 12.4758 10.8359C10.9185 10.8359 9.65161 9.2749 9.65161 7.35644C9.65161 5.43726 10.9185 3.87573 12.4758 3.87573Z" fill="black"/>
<path d="M20.5935 14.0271H20.5937C20.9924 14.1594 21.3992 14.2227 21.8042 14.2227C23.6943 14.2227 25.5364 12.8469 26.2392 10.7327C26.644 9.51562 26.6174 8.22876 26.1643 7.10937C25.6902 5.93774 24.8115 5.08716 23.6899 4.71411C22.5683 4.34155 21.3547 4.49682 20.2734 5.15161C19.2405 5.77734 18.449 6.79199 18.0449 8.00903C17.1916 10.5764 18.335 13.2761 20.5935 14.0271ZM19.8249 8.60058C20.0889 7.80591 20.5933 7.15112 21.2454 6.7561C21.8486 6.39062 22.5068 6.29761 23.0984 6.49414C23.6897 6.69092 24.1609 7.15918 24.4255 7.81299C24.7114 8.51953 24.7236 9.34619 24.4592 10.1409C23.9321 11.7268 22.4634 12.6716 21.1853 12.2471C19.9082 11.8223 19.2978 10.1865 19.8249 8.60058Z" fill="black"/>
<path d="M30.4922 13.4019L30.4914 13.4012C28.7041 12.0809 26.031 12.6531 24.5322 14.6775C23.0349 16.7029 23.269 19.4258 25.0537 20.7471C25.7046 21.2293 26.4736 21.4598 27.2607 21.4598C28.6326 21.4598 30.0598 20.7596 31.0137 19.472C32.511 17.4466 32.2771 14.7237 30.4922 13.4019ZM29.5061 18.356C28.6211 19.5506 27.1247 19.9468 26.1699 19.2396C25.2158 18.5333 25.1577 16.9869 26.0403 15.793C26.6269 15.0005 27.4839 14.5596 28.2737 14.5596C28.6731 14.5596 29.0554 14.6724 29.3767 14.91C30.3301 15.617 30.3879 17.1629 29.5061 18.356Z" fill="black"/>
</g>
<defs>
<clipPath id="clip0_280_3802">
<rect width="32" height="32" fill="white"/>
</clipPath>
</defs>
</svg>
