<svg width="32" height="32" viewBox="0 0 32 32" fill="none" xmlns="http://www.w3.org/2000/svg">
<path fill-rule="evenodd" clip-rule="evenodd" d="M15 4C22.175 4 28 9.825 28 17C28 24.175 22.175 30 15 30C7.825 30 2 24.175 2 17C2 9.825 7.825 4 15 4ZM15 6C8.929 6 4 10.929 4 17C4 23.071 8.929 28 15 28C21.071 28 26 23.071 26 17C26 10.929 21.071 6 15 6ZM15 8C19.967 8 24 12.033 24 17C24 21.967 19.967 26 15 26C10.033 26 6 21.967 6 17C6 12.033 10.033 8 15 8ZM15 10C11.137 10 8 13.137 8 17C8 20.863 11.137 24 15 24C18.863 24 22 20.863 22 17C22 13.137 18.863 10 15 10ZM15 12C17.76 12 20 14.24 20 17C20 19.76 17.76 22 15 22C12.24 22 10 19.76 10 17C10 14.24 12.24 12 15 12ZM15 14C13.344 14 12 15.344 12 17C12 18.656 13.344 20 15 20C16.656 20 18 18.656 18 17C18 15.344 16.656 14 15 14Z" fill="#2B2D42"/>
<path fill-rule="evenodd" clip-rule="evenodd" d="M26.4298 6.98496L15.721 17.6928C15.3309 18.0829 14.6975 18.0833 14.3065 17.6933C13.9165 17.3023 13.9169 16.6689 14.307 16.2788L25.0149 5.56996L25.015 1.98484C25.015 1.43284 25.464 0.984841 26.015 0.984801C26.567 0.983841 27.016 1.43284 27.015 1.9848L27.0154 4.9844L30.015 4.9848C30.567 4.98384 31.016 5.43284 31.015 5.9848C31.015 6.53584 30.567 6.98484 30.015 6.98484L26.4298 6.98496Z" fill="#EE243A"/>
</svg>
