<svg width="27" height="28" viewBox="0 0 27 28" fill="none" xmlns="http://www.w3.org/2000/svg">
<path d="M5.7 0C4.18827 0 2.73845 0.616338 1.66949 1.71343C0.600534 2.81051 0 4.29848 0 5.85V21.45C0 23.0015 0.600534 24.4895 1.66949 25.5866C2.73845 26.6837 4.18827 27.3 5.7 27.3H20.9C22.4117 27.3 23.8616 26.6837 24.9305 25.5866C25.9995 24.4895 26.6 23.0015 26.6 21.45V5.85C26.6 4.29848 25.9995 2.81051 24.9305 1.71343C23.8616 0.616338 22.4117 0 20.9 0H5.7ZM8.55 13.65C8.55 12.3571 9.05044 11.1171 9.94124 10.2029C10.832 9.28861 12.0402 8.775 13.3 8.775C14.5598 8.775 15.768 9.28861 16.6588 10.2029C17.5496 11.1171 18.05 12.3571 18.05 13.65C18.05 14.9429 17.5496 16.1829 16.6588 17.0971C15.768 18.0114 14.5598 18.525 13.3 18.525C12.0402 18.525 10.832 18.0114 9.94124 17.0971C9.05044 16.1829 8.55 14.9429 8.55 13.65ZM6.7165 14.625H5.7C5.44804 14.625 5.20641 14.5223 5.02825 14.3394C4.85009 14.1566 4.75 13.9086 4.75 13.65C4.75 13.3914 4.85009 13.1434 5.02825 12.9606C5.20641 12.7777 5.44804 12.675 5.7 12.675H6.7165C6.92133 11.2162 7.58079 9.86465 8.59625 8.82246C9.61171 7.78028 10.9286 7.10347 12.35 6.89325V5.85C12.35 5.59141 12.4501 5.34342 12.6282 5.16057C12.8064 4.97772 13.048 4.875 13.3 4.875C13.552 4.875 13.7936 4.97772 13.9718 5.16057C14.1499 5.34342 14.25 5.59141 14.25 5.85V6.89325C15.6714 7.10347 16.9883 7.78028 18.0037 8.82246C19.0192 9.86465 19.6787 11.2162 19.8835 12.675H20.9C21.152 12.675 21.3936 12.7777 21.5718 12.9606C21.7499 13.1434 21.85 13.3914 21.85 13.65C21.85 13.9086 21.7499 14.1566 21.5718 14.3394C21.3936 14.5223 21.152 14.625 20.9 14.625H19.8835C19.6787 16.0838 19.0192 17.4354 18.0037 18.4775C16.9883 19.5197 15.6714 20.1965 14.25 20.4067V21.45C14.25 21.7086 14.1499 21.9566 13.9718 22.1394C13.7936 22.3223 13.552 22.425 13.3 22.425C13.048 22.425 12.8064 22.3223 12.6282 22.1394C12.4501 21.9566 12.35 21.7086 12.35 21.45V20.4067C10.9286 20.1965 9.61171 19.5197 8.59625 18.4775C7.58079 17.4354 6.92133 16.0838 6.7165 14.625ZM15.675 13.65C15.675 13.0035 15.4248 12.3835 14.9794 11.9264C14.534 11.4693 13.9299 11.2125 13.3 11.2125C12.6701 11.2125 12.066 11.4693 11.6206 11.9264C11.1752 12.3835 10.925 13.0035 10.925 13.65C10.925 14.2965 11.1752 14.9165 11.6206 15.3736C12.066 15.8307 12.6701 16.0875 13.3 16.0875C13.9299 16.0875 14.534 15.8307 14.9794 15.3736C15.4248 14.9165 15.675 14.2965 15.675 13.65Z" fill="white"/>
</svg>
