<svg width="24" height="24" viewBox="0 0 24 24" fill="none" xmlns="http://www.w3.org/2000/svg">
<path fill-rule="evenodd" clip-rule="evenodd" d="M13.4214 1.36613L14.8504 2.43582C15.2413 2.72836 15.6526 2.87808 16.1401 2.90522L17.9223 3.00436C18.9895 3.06371 19.8563 3.79097 20.1 4.83169L20.5072 6.56968C20.6185 7.04499 20.8374 7.42411 21.1934 7.75819L22.495 8.9798C23.2743 9.71124 23.4708 10.8255 22.9886 11.7794L22.1833 13.3725C21.9631 13.8082 21.8871 14.2393 21.945 14.724L22.1569 16.4964C22.2838 17.5577 21.718 18.5376 20.7355 18.9584L19.0946 19.6611C18.6458 19.8533 18.3105 20.1347 18.0433 20.5433L17.0663 22.0372C16.4813 22.9317 15.4181 23.3186 14.395 23.0094L12.6863 22.4931C12.219 22.3518 11.7812 22.3518 11.3139 22.4931L9.60519 23.0094C8.58209 23.3186 7.51888 22.9317 6.93388 22.0372L5.95686 20.5433C5.68963 20.1347 5.35428 19.8533 4.90555 19.6611L3.26455 18.9583C2.28205 18.5375 1.71631 17.5576 1.84316 16.4963L2.05503 14.7239C2.11297 14.2392 2.03694 13.8081 1.81672 13.3724L1.01145 11.7793C0.529297 10.8255 0.725751 9.71119 1.50509 8.97971L2.80667 7.7581C3.16264 7.42402 3.3815 7.04489 3.49283 6.56958L3.89998 4.8316C4.14373 3.79093 5.0105 3.06366 6.0777 3.00427L7.85994 2.90513C8.34739 2.87804 8.75877 2.72827 9.14961 2.43572L10.5786 1.36604C11.4343 0.725629 12.5657 0.725629 13.4214 1.36613Z" fill="#2B7FFF"/>
<path fill-rule="evenodd" clip-rule="evenodd" d="M13.4214 1.36609L14.8504 2.43578C15.2412 2.72832 15.6526 2.87804 16.1401 2.90518L17.9223 3.00432C18.9895 3.06367 19.8563 3.79093 20.1 4.83165L20.5072 6.56963C20.6185 7.04495 20.8374 7.42407 21.1934 7.75815L22.4949 8.97976C23.2743 9.7112 23.4707 10.8255 22.9886 11.7794L22.1833 13.3724C21.9631 13.8081 21.8871 14.2392 21.945 14.724L22.1569 16.4964C22.2837 17.5577 21.718 18.5375 20.7355 18.9583L19.0946 19.6611C18.6458 19.8533 18.3105 20.1347 18.0433 20.5432L17.0663 22.0371C16.5255 22.864 15.5761 23.2571 14.6274 23.0676C15.2284 22.9452 15.769 22.5872 16.1288 22.0371L17.1058 20.5432C17.373 20.1347 17.7083 19.8532 18.1571 19.6611L19.798 18.9583C20.7805 18.5375 21.3462 17.5577 21.2194 16.4964L21.0075 14.724C20.9496 14.2392 21.0256 13.8081 21.2458 13.3724L22.0511 11.7794C22.5332 10.8255 22.3368 9.71124 21.5574 8.97976L20.2559 7.75815C19.8999 7.42407 19.681 7.04495 19.5697 6.56963L19.1625 4.83165C18.9188 3.79098 18.052 3.06371 16.9848 3.00432L15.2026 2.90518C14.7151 2.87809 14.3037 2.72832 13.9129 2.43578L12.4839 1.36609C12.1912 1.14704 11.8663 1.00295 11.5313 0.933713C12.1759 0.800541 12.8583 0.944635 13.4214 1.36609ZM11.5312 22.437C11.4593 22.4522 11.3869 22.4709 11.3138 22.4929L9.60512 23.0093C9.21118 23.1284 8.81134 23.1441 8.43512 23.0675C8.5127 23.052 8.59023 23.0327 8.66757 23.0093L10.3763 22.4929C10.7704 22.3738 11.1436 22.3552 11.5312 22.437Z" fill="#2B7FFF"/>
<path d="M17.1523 17.1549C19.9993 14.3079 19.9993 9.69208 17.1523 6.84511C14.3053 3.99814 9.68948 3.99814 6.84251 6.84511C3.99555 9.69208 3.99555 14.3079 6.84251 17.1549C9.68948 20.0019 14.3053 20.0019 17.1523 17.1549Z" fill="#2B7FFF"/>
<path fill-rule="evenodd" clip-rule="evenodd" d="M12 4.70898C12.1575 4.70898 12.3137 4.71456 12.4687 4.72441C8.66041 4.96614 5.6463 8.13091 5.6463 12.0002C5.6463 15.8695 8.66046 19.0343 12.4688 19.276C12.3138 19.2858 12.1575 19.2914 12 19.2914C7.97318 19.2914 4.7088 16.027 4.7088 12.0002C4.70875 7.97341 7.97313 4.70898 12 4.70898Z" fill="#2B7FFF"/>
<path fill-rule="evenodd" clip-rule="evenodd" d="M11.0884 12.6125L14.4632 9.20399C14.8627 8.80053 15.5144 8.79936 15.9167 9.19949C16.3189 9.59947 16.3202 10.2493 15.9211 10.6521C14.5526 12.0333 13.1933 13.4236 11.8185 14.7985C11.4166 15.2004 10.7646 15.2004 10.3627 14.7985L8.08168 12.5175C7.67972 12.1156 7.67972 11.4636 8.08168 11.0617C8.48358 10.6597 9.13561 10.6597 9.53752 11.0617L11.0884 12.6125Z" fill="#ECEFF1"/>
</svg>
