<svg width="24" height="24" viewBox="0 0 24 24" fill="none" xmlns="http://www.w3.org/2000/svg">
<g clip-path="url(#clip0_274_3066)">
<path d="M18.6284 9.3422C18.4904 9.1277 18.2535 9.0002 18 9.0002H12.75V0.750317C12.75 0.396322 12.5025 0.0903261 12.156 0.0168272C11.8035 -0.0581718 11.4585 0.123326 11.3145 0.445821L5.31463 13.9456C5.21113 14.1766 5.23363 14.4466 5.37163 14.6581C5.50963 14.8711 5.74663 15.0001 6.00012 15.0001H11.2501V23.25C11.2501 23.604 11.4975 23.91 11.844 23.9835C11.8965 23.994 11.949 24 12 24C12.291 24 12.5625 23.8305 12.6855 23.5545L18.6854 10.0547C18.7874 9.82219 18.7679 9.5552 18.6284 9.3422Z" fill="#615FFF"/>
</g>
<defs>
<clipPath id="clip0_274_3066">
<rect width="24" height="24" fill="white"/>
</clipPath>
</defs>
</svg>
