<svg width="48" height="48" viewBox="0 0 48 48" fill="none" xmlns="http://www.w3.org/2000/svg">
<g clip-path="url(#clip0_274_2566)">
<path d="M33.7526 6.15412L35.2339 3.58875L38.7315 5.60812L37.2502 8.1735L33.7526 6.15412ZM33.3742 8.06287L34.2836 6.48787L36.5569 7.80037L35.6475 9.37537L33.3742 8.06287ZM20.2612 0H27.7387V2.9925H20.2612V0ZM21.75 3H26.25V7.125H21.75V3Z" fill="#2F2F2F"/>
<path d="M24 47.6437C35.8051 47.6437 45.375 38.0738 45.375 26.2687C45.375 14.4637 35.8051 4.89374 24 4.89374C12.1949 4.89374 2.625 14.4637 2.625 26.2687C2.625 38.0738 12.1949 47.6437 24 47.6437Z" fill="#19699D"/>
<path d="M24 43.0687C14.7375 43.0687 7.19995 35.535 7.19995 26.2687C7.19995 17.0062 14.7337 9.47247 24 9.47247C33.2625 9.47247 40.7962 17.01 40.7962 26.2687C40.7999 35.535 33.2625 43.0687 24 43.0687Z" fill="white"/>
<path d="M24 7.67999C13.7475 7.67999 5.40747 16.0237 5.40747 26.2725C5.40747 36.525 13.7475 44.865 24 44.865C34.2525 44.865 42.5925 36.525 42.5925 26.2725C42.5925 16.02 34.2525 7.67999 24 7.67999ZM24 43.0687C14.7375 43.0687 7.19997 35.535 7.19997 26.2687C7.19997 17.0062 14.7337 9.47249 24 9.47249C33.2625 9.47249 40.7962 17.01 40.7962 26.2687C40.8 35.535 33.2625 43.0687 24 43.0687Z" fill="#BEE8F1"/>
<path d="M25.7363 24.03V16.3275H25.3388V11.9925C25.3388 11.415 24.87 10.9462 24.2925 10.9462H23.7038C23.1263 10.9462 22.6575 11.415 22.6575 11.9925V16.3275H22.26V24.03C21.4463 24.66 20.9738 25.71 21.2138 26.865C21.4425 27.9675 22.3313 28.8525 23.4375 29.0625C25.2525 29.4075 26.8425 28.0275 26.8425 26.2687C26.8463 25.3537 26.4075 24.5512 25.7363 24.03ZM23.1075 26.865C23.0888 26.835 23.0738 26.8012 23.0588 26.7712C22.9763 26.6212 22.9275 26.4525 22.9275 26.2687C22.9275 26.0887 22.9763 25.9162 23.0588 25.7662C23.2388 25.4287 23.5913 25.1962 24 25.1962C24.4088 25.1962 24.7613 25.4325 24.9413 25.77C25.02 25.92 25.0725 26.0887 25.0725 26.2687C25.0725 26.4525 25.0238 26.6212 24.9413 26.7712C24.9263 26.805 24.9113 26.8387 24.8925 26.865C24.7763 27.0375 24.615 27.1725 24.4238 27.255C24.42 27.2587 24.4125 27.2587 24.4088 27.2625C24.285 27.3112 24.1463 27.3412 24.0038 27.3412C23.8575 27.3412 23.7225 27.3112 23.5988 27.2625C23.595 27.2587 23.5875 27.2587 23.5838 27.255C23.385 27.1725 23.2238 27.0375 23.1075 26.865Z" fill="#2F2F2F"/>
<path d="M38.5275 27.345C39.1198 27.345 39.6 26.8648 39.6 26.2725C39.6 25.6802 39.1198 25.2 38.5275 25.2C37.9351 25.2 37.455 25.6802 37.455 26.2725C37.455 26.8648 37.9351 27.345 38.5275 27.345Z" fill="#2F2F2F"/>
<path d="M37.1175 19.935C37.3636 19.7923 37.5432 19.5579 37.6169 19.2831C37.6907 19.0084 37.6527 18.7156 37.5112 18.4688C37.3685 18.2237 37.1348 18.0448 36.861 17.9711C36.5871 17.8974 36.2952 17.9347 36.0487 18.075C35.8026 18.2178 35.6231 18.4521 35.5493 18.7269C35.4755 19.0016 35.5135 19.2944 35.655 19.5413C35.7249 19.6634 35.8183 19.7704 35.9298 19.8564C36.0412 19.9423 36.1686 20.0053 36.3044 20.0419C36.4403 20.0785 36.5821 20.0879 36.7216 20.0696C36.8611 20.0512 36.9957 20.0055 37.1175 19.935ZM31.8 12.7613C31.6782 12.6908 31.5436 12.6451 31.4041 12.6267C31.2646 12.6084 31.1228 12.6178 30.9869 12.6544C30.8511 12.6909 30.7237 12.754 30.6123 12.8399C30.5008 12.9258 30.4074 13.0329 30.3375 13.155C30.2672 13.2769 30.2216 13.4114 30.2033 13.5509C30.185 13.6904 30.1944 13.8321 30.231 13.9679C30.2676 14.1038 30.3306 14.2311 30.4164 14.3425C30.5023 14.454 30.6092 14.5474 30.7312 14.6175C31.245 14.9138 31.9012 14.7375 32.1937 14.2238C32.2642 14.102 32.3099 13.9674 32.3283 13.8279C32.3466 13.6884 32.3372 13.5466 32.3006 13.4107C32.2641 13.2748 32.201 13.1475 32.1151 13.0361C32.0292 12.9246 31.9221 12.8312 31.8 12.7613ZM16.2 12.7575C15.9541 12.8995 15.7746 13.1332 15.7008 13.4074C15.627 13.6815 15.6649 13.9738 15.8062 14.22C15.8762 14.3421 15.9696 14.4492 16.081 14.5351C16.1925 14.621 16.3198 14.6841 16.4557 14.7207C16.5916 14.7573 16.7333 14.7666 16.8729 14.7483C17.0124 14.73 17.1469 14.6842 17.2687 14.6138C17.3906 14.5436 17.4975 14.45 17.5831 14.3385C17.6687 14.2269 17.7314 14.0995 17.7677 13.9636C17.8039 13.8277 17.813 13.686 17.7943 13.5465C17.7756 13.4071 17.7295 13.2728 17.6587 13.1513C17.5172 12.906 17.2841 12.7268 17.0107 12.653C16.7373 12.5792 16.4457 12.6168 16.2 12.7575Z" fill="#2F2F2F"/>
<path d="M12.3468 19.5404C12.6429 19.0274 12.467 18.3715 11.954 18.0754C11.441 17.7793 10.7851 17.9551 10.489 18.4681C10.1929 18.9811 10.3688 19.637 10.8818 19.9331C11.3948 20.2292 12.0507 20.0534 12.3468 19.5404Z" fill="#2F2F2F"/>
<path d="M9.47252 27.3412C10.0649 27.3412 10.545 26.8611 10.545 26.2687C10.545 25.6764 10.0649 25.1962 9.47252 25.1962C8.8802 25.1962 8.40002 25.6764 8.40002 26.2687C8.40002 26.8611 8.8802 27.3412 9.47252 27.3412Z" fill="#2F2F2F"/>
<path d="M10.8825 32.6063C10.6374 32.749 10.4585 32.9827 10.3848 33.2565C10.3111 33.5304 10.3484 33.8223 10.4887 34.0688C10.5588 34.1908 10.6522 34.2977 10.7637 34.3836C10.8752 34.4694 11.0024 34.5324 11.1383 34.569C11.2741 34.6056 11.4159 34.615 11.5554 34.5967C11.6948 34.5784 11.8294 34.5328 11.9512 34.4625C12.0733 34.3926 12.1804 34.2992 12.2663 34.1877C12.3522 34.0763 12.4153 33.9489 12.4519 33.8131C12.4885 33.6772 12.4978 33.5354 12.4795 33.3959C12.4612 33.2564 12.4154 33.1218 12.345 33C12.2029 32.7542 11.9692 32.5747 11.6951 32.5009C11.4209 32.4271 11.1287 32.465 10.8825 32.6063Z" fill="#2F2F2F"/>
<path d="M17.6659 39.389C17.962 38.876 17.7861 38.2201 17.2731 37.924C16.7601 37.6279 16.1042 37.8037 15.8081 38.3167C15.512 38.8297 15.6878 39.4856 16.2009 39.7817C16.7139 40.0778 17.3698 39.902 17.6659 39.389Z" fill="#2F2F2F"/>
<path d="M24 41.8725C24.5923 41.8725 25.0725 41.3924 25.0725 40.8C25.0725 40.2077 24.5923 39.7275 24 39.7275C23.4077 39.7275 22.9275 40.2077 22.9275 40.8C22.9275 41.3924 23.4077 41.8725 24 41.8725Z" fill="#2F2F2F"/>
<path d="M31.8012 39.7823C32.3142 39.4862 32.49 38.8303 32.1939 38.3173C31.8979 37.8042 31.242 37.6284 30.7289 37.9245C30.2159 38.2205 30.0401 38.8765 30.3362 39.3895C30.6322 39.9025 31.2881 40.0783 31.8012 39.7823Z" fill="#2F2F2F"/>
<path d="M37.5097 34.0712C37.8051 33.5602 37.6288 32.9056 37.116 32.6092C36.6031 32.3128 35.948 32.4869 35.6526 32.9979C35.3572 33.5089 35.5335 34.1635 36.0464 34.4599C36.5592 34.7563 37.2144 34.5823 37.5097 34.0712Z" fill="#2F2F2F"/>
</g>
<defs>
<clipPath id="clip0_274_2566">
<rect width="48" height="48" fill="white"/>
</clipPath>
</defs>
</svg>
