<svg width="32" height="32" viewBox="0 0 32 32" fill="none" xmlns="http://www.w3.org/2000/svg">
<g clip-path="url(#clip0_280_3746)">
<path d="M7.0555 26.8299C5.76293 26.8299 4.71137 25.7784 4.71137 24.4859C4.71137 23.1933 5.76293 22.1418 7.0555 22.1418H16.0264C18.3529 22.1418 20.2456 20.2491 20.2456 17.9227C20.2456 15.5962 18.3529 13.7036 16.0264 13.7036H9.69981V15.5786H16.0264C17.319 15.5786 18.3706 16.6302 18.3706 17.9227C18.3706 19.2153 17.319 20.2668 16.0264 20.2668H7.0555C4.72906 20.2668 2.83637 22.1595 2.83637 24.4859C2.83637 26.8122 4.72906 28.7049 7.0555 28.7049H22.3002V26.8299H7.0555Z" fill="black"/>
<path d="M8.68569 4.78517C6.69869 2.79817 3.47719 2.79817 1.49025 4.78517C-0.49675 6.77217 -0.49675 9.99367 1.49025 11.9806L5.088 15.5784L8.68569 11.9806C10.6727 9.99361 10.6727 6.77211 8.68569 4.78517ZM5.05788 9.92242C4.18481 9.92242 3.47706 9.21467 3.47706 8.34161C3.47706 7.46855 4.18481 6.76073 5.05788 6.76073C5.93094 6.76073 6.63875 7.46848 6.63875 8.34161C6.63875 9.21467 5.931 9.92242 5.05788 9.92242Z" fill="black"/>
<path d="M30.5098 17.9116C28.5228 15.9246 25.3013 15.9246 23.3143 17.9116C21.3273 19.8986 21.3273 23.1201 23.3143 25.1071L26.9121 28.7048L30.5098 25.1071C32.4968 23.1201 32.4968 19.8986 30.5098 17.9116ZM26.8819 23.0489C26.0089 23.0489 25.3011 22.3412 25.3011 21.4681C25.3011 20.5951 26.0089 19.8873 26.8819 19.8873C27.755 19.8873 28.4628 20.595 28.4628 21.4681C28.4628 22.3412 27.7551 23.0489 26.8819 23.0489Z" fill="black"/>
</g>
<defs>
<clipPath id="clip0_280_3746">
<rect width="32" height="32" fill="white"/>
</clipPath>
</defs>
</svg>
