<svg width="40" height="40" viewBox="0 0 40 40" fill="none" xmlns="http://www.w3.org/2000/svg">
<g clip-path="url(#clip0_274_3188)">
<path d="M21.8331 36.8522L22.3105 37.4133C22.9207 38.1307 23.9102 38.1307 24.5204 37.4133C25.1307 36.696 25.1307 35.5329 24.5204 34.8155L25.3144 35.7488C25.9246 36.4662 26.9141 36.4662 27.5243 35.7488C28.1346 35.0314 28.1346 33.8684 27.5243 33.151L28.2186 33.9671C28.8422 34.7002 29.8619 34.6841 30.4682 33.9189C31.0456 33.19 31.0013 32.0425 30.4021 31.3382L22.8956 22.5144C23.5193 23.2474 24.5388 23.2314 25.1451 22.4662C25.7227 21.7372 25.6782 20.5898 25.0791 19.8854L21.6415 15.8446C20.6544 14.6842 19.1978 14.2711 17.8692 14.7746L16.4032 15.3301C15.9233 15.5119 15.3972 15.3627 15.0406 14.9436L12.5449 12.0098L8.32706 14.2359L5.85938 19.8686L7.99319 22.3769C8.59275 23.0817 8.90678 24.0548 8.85571 25.0497C8.80205 26.0953 9.1321 27.1179 9.76228 27.8587L19.5967 39.4189C20.1959 40.1232 21.172 40.1754 21.7921 39.4966C22.4431 38.7839 22.4568 37.5853 21.8331 36.8522Z" fill="#FED2A4"/>
<path d="M30.4695 33.9187C30.3087 34.122 30.1188 34.2733 29.9145 34.3697C30.1454 33.6936 29.8535 33.074 29.3901 32.5302L19.3494 20.6973L21.5303 18.0949L21.3767 17.9142C20.3896 16.7539 18.9327 16.3407 17.6045 16.8447L16.138 17.3998C15.6585 17.5823 15.1324 17.433 14.776 17.014L11.5332 13.202L12.5467 12.0098L15.0422 14.9441C15.3985 15.363 15.9255 15.5125 16.405 15.33L17.8708 14.7749C19.1998 14.2718 20.6558 14.6841 21.6429 15.8445L25.0812 19.8853C25.6798 20.5898 25.724 21.7378 25.1472 22.4669C24.5406 23.2319 23.5213 23.248 22.8971 22.5151L30.4036 31.3381C31.0029 32.0424 31.0472 33.1905 30.4695 33.9187Z" fill="#FFBD86"/>
<path d="M28.2198 33.9644L27.5256 33.1483C27.8313 33.5067 27.9833 33.9766 27.9833 34.4467C27.9833 34.7824 27.9053 35.1191 27.7484 35.4141L23.3721 30.2688C23.1364 29.9927 23.1364 29.5435 23.3721 29.2664C23.6078 28.9893 23.9899 28.9893 24.2256 29.2664L28.2778 34.0297C28.2584 34.0089 28.2391 33.9871 28.2198 33.9644Z" fill="#FFBD86"/>
<path d="M24.9787 36.1106C24.9787 36.4472 24.9007 36.7848 24.7421 37.0808L19.8252 31.301C19.5895 31.0239 19.5895 30.5747 19.8252 30.2976C20.0609 30.0206 20.4431 30.0206 20.6788 30.2976L24.5579 34.8576C24.5643 34.8651 24.5708 34.8727 24.5764 34.8803C24.8452 35.2292 24.9787 35.6699 24.9787 36.1106Z" fill="#FFBD86"/>
<path d="M22.3104 37.4116L21.8326 36.8499C22.3531 37.4618 22.4302 38.3961 22.0626 39.1034C22.0288 39.077 21.9967 39.0467 21.9669 39.0117L19.292 35.8674C19.0563 35.5903 19.0563 35.1411 19.292 34.8641C19.5277 34.587 19.9091 34.587 20.1448 34.8641L22.349 37.4552C22.3362 37.4409 22.3233 37.4268 22.3104 37.4116Z" fill="#FFBD86"/>
<path d="M10.8321 34.1672L12.7399 31.9245C13.3145 31.2491 13.3145 30.154 12.7399 29.4785L12.6774 29.405C12.1028 28.7296 11.1713 28.7296 10.5966 29.405L8.68874 31.6477C8.11417 32.3231 8.11417 33.4182 8.68874 34.0937L8.7513 34.1672C9.32595 34.8426 10.2575 34.8426 10.8321 34.1672Z" fill="#EB9C8D"/>
<path d="M12.7085 31.9602L10.863 34.1295C10.567 34.4776 10.1792 34.6515 9.79154 34.6515C9.40378 34.6515 9.01602 34.4776 8.71995 34.1295C8.52525 33.9007 8.3949 33.6255 8.32812 33.3333C8.45683 33.374 8.5896 33.3948 8.72237 33.3948C9.11091 33.3948 9.49867 33.2209 9.79388 32.8728L11.6393 30.7044C12.0368 30.2372 12.1671 29.5753 12.0311 28.9805C12.2797 29.059 12.5137 29.2122 12.7084 29.441C13.2999 30.136 13.2999 31.2642 12.7085 31.9602Z" fill="#D78878"/>
<path d="M13.4493 36.1096L15.3571 33.8669C15.9317 33.1915 15.9317 32.0964 15.3571 31.4209L15.2946 31.3474C14.72 30.672 13.7884 30.672 13.2138 31.3474L11.3059 33.5901C10.7314 34.2655 10.7314 35.3605 11.3059 36.036L11.3685 36.1096C11.9431 36.785 12.8747 36.785 13.4493 36.1096Z" fill="#EB9C8D"/>
<path d="M15.3249 33.9016L13.4802 36.071C13.1842 36.418 12.7964 36.5921 12.4079 36.5921C12.0201 36.5921 11.6323 36.4181 11.3363 36.071C11.1416 35.8421 11.0112 35.567 10.9453 35.2748C11.074 35.3164 11.2076 35.3372 11.3403 35.3372C11.7281 35.3372 12.1159 35.1632 12.4118 34.8152L14.2573 32.6458C14.6548 32.1797 14.785 31.5177 14.6491 30.9229C14.8969 31.0004 15.1302 31.1546 15.3249 31.3824C15.9171 32.0775 15.9171 33.2057 15.3249 33.9016Z" fill="#D78878"/>
<path d="M16.3165 37.758L18.2243 35.5153C18.7989 34.8399 18.7989 33.7449 18.2243 33.0694L18.1618 32.9958C17.5872 32.3204 16.6556 32.3204 16.081 32.9958L14.1731 35.2385C13.5985 35.9139 13.5985 37.009 14.1731 37.6845L14.2357 37.758C14.8103 38.4334 15.7419 38.4334 16.3165 37.758Z" fill="#EB9C8D"/>
<path d="M18.1941 35.5501L16.3486 37.7194C16.0525 38.0675 15.6648 38.2414 15.277 38.2414C14.8892 38.2414 14.5015 38.0675 14.2054 37.7194C14.0107 37.4906 13.8804 37.2154 13.8145 36.9232C13.9432 36.9648 14.0759 36.9856 14.2086 36.9856C14.5972 36.9856 14.9849 36.8117 15.281 36.4636L17.1265 34.2943C17.523 33.8281 17.6542 33.1661 17.5166 32.5713C17.7652 32.6488 17.9993 32.802 18.194 33.0309C18.7861 33.7259 18.7861 34.854 18.1941 35.5501Z" fill="#D78878"/>
<path d="M19.1094 39.4934L21.0173 37.2507C21.5919 36.5753 21.5919 35.4802 21.0173 34.8047L20.9547 34.7312C20.3802 34.0558 19.4486 34.0558 18.874 34.7312L16.9661 36.9739C16.3915 37.6493 16.3915 38.7443 16.9661 39.4198L17.0286 39.4934C17.6033 40.1688 18.5349 40.1688 19.1094 39.4934Z" fill="#EB9C8D"/>
<path d="M20.987 37.2841L19.1415 39.4535C18.8454 39.8015 18.4577 39.9746 18.0699 39.9746C17.6821 39.9746 17.2944 39.8015 16.9983 39.4535C16.7948 39.2142 16.6612 38.9229 16.5977 38.6166C16.7159 38.6506 16.8366 38.6676 16.9581 38.6676C17.3458 38.6676 17.7336 38.4937 18.0297 38.1456L19.8751 35.9772C20.2637 35.5205 20.3972 34.8783 20.2758 34.2939C20.5364 34.3687 20.7834 34.5257 20.987 34.7639C21.579 35.46 21.579 36.5882 20.987 37.2841Z" fill="#D78878"/>
<path d="M34.2123 19.8363L31.8017 14.2322L27.5268 11.9775L25.0067 14.94C24.6502 15.3591 24.124 15.5084 23.6441 15.3265L22.1781 14.771C22.1708 14.7682 22.1636 14.7655 22.1563 14.7628C21.1336 14.3834 20.0156 14.705 19.2318 15.5656L15.3749 19.7891C14.7194 20.5069 14.7011 21.7205 15.3345 22.4652C15.9356 23.1718 16.9043 23.1937 17.5282 22.5147L19.3113 20.5741C19.3113 20.5741 20.5918 21.6015 21.6921 21.0957L28.8636 29.5261L30.285 27.8551C30.9152 27.1144 31.2451 26.0917 31.1915 25.0461C31.1405 24.0511 31.4545 23.0781 32.0541 22.3733L34.2123 19.8363Z" fill="#EB9C8D"/>
<path d="M32.0543 22.3759C31.4541 23.0804 31.1403 24.0534 31.191 25.0483C31.2449 26.0943 30.9151 27.1174 30.2852 27.8579L28.8637 29.5289L27.7656 28.2381L28.8974 26.9616C29.5321 26.2155 29.697 25.7493 29.643 24.6967C29.5916 23.6943 29.8542 22.0953 30.4584 21.3851L32.9816 18.4199L34.2117 19.8387L32.0543 22.3759Z" fill="#D78878"/>
<path d="M39.8415 15.0394L35.3373 20.3342C35.1255 20.5831 34.7823 20.5831 34.5706 20.3342L27.1217 11.578C26.91 11.3291 26.91 10.9256 27.1217 10.6767L31.6259 5.38198C31.8377 5.13309 32.1809 5.13309 32.3926 5.38198L39.8415 14.1382C40.0533 14.387 40.0533 14.7905 39.8415 15.0394Z" fill="#7ACAA6"/>
<path d="M39.8291 15.0518L35.3482 20.3201C35.1302 20.5763 34.7762 20.5763 34.5582 20.3201L33.2754 18.8112C33.4934 19.0675 33.8466 19.0675 34.0646 18.8112L38.5463 13.5438C38.7642 13.2876 38.7642 12.8715 38.5463 12.6152L39.8291 14.1231C40.0472 14.3805 40.0472 14.7955 39.8291 15.0518Z" fill="#57BE92"/>
<path d="M0.158794 15.0394L4.66305 20.3342C4.87478 20.5831 5.21802 20.5831 5.42975 20.3342L12.8786 11.578C13.0904 11.3291 13.0904 10.9256 12.8786 10.6767L8.37438 5.38198C8.16265 5.13309 7.81941 5.13309 7.60768 5.38198L0.158794 14.1382C-0.0529313 14.387 -0.0529313 14.7905 0.158794 15.0394Z" fill="#528FD8"/>
<path d="M12.8659 11.5923L11.7124 12.9482C11.9303 12.6919 11.9303 12.2768 11.7124 12.0196L7.23137 6.7523C7.0134 6.49598 6.65938 6.49598 6.44141 6.7523L7.59492 5.39634C7.81376 5.14002 8.16692 5.14002 8.38489 5.39634L12.8658 10.6637C13.0847 10.9199 13.0847 11.336 12.8659 11.5923Z" fill="#0573CE"/>
</g>
<defs>
<clipPath id="clip0_274_3188">
<rect width="40" height="40" fill="white"/>
</clipPath>
</defs>
</svg>
