<svg width="48" height="48" viewBox="0 0 48 48" fill="none" xmlns="http://www.w3.org/2000/svg">
<path d="M0 12C0 5.37258 5.37258 0 12 0H36C42.6274 0 48 5.37258 48 12V36C48 42.6274 42.6274 48 36 48H12C5.37258 48 0 42.6274 0 36V12Z" fill="#8E51FF"/>
<path d="M24 10.6665C16.6667 10.6665 10.6667 16.6665 10.6667 23.9998C10.6667 31.3332 16.6667 37.3332 24 37.3332C31.3333 37.3332 37.3333 31.3332 37.3333 23.9998C37.3333 16.6665 31.3333 10.6665 24 10.6665ZM24 34.6665C18.12 34.6665 13.3333 29.8798 13.3333 23.9998C13.3333 18.1198 18.12 13.3332 24 13.3332C29.88 13.3332 34.6667 18.1198 34.6667 23.9998C34.6667 29.8798 29.88 34.6665 24 34.6665ZM24.6667 17.3332H22.6667V25.3332L29.6 29.5998L30.6667 27.8665L24.6667 24.2665V17.3332Z" fill="white"/>
</svg>
