<svg width="32" height="32" viewBox="0 0 32 32" fill="none" xmlns="http://www.w3.org/2000/svg">
<g clip-path="url(#clip0_280_3783)">
<path d="M16.12 7.905C18.1625 7.905 19.8225 6.245 19.8225 4.2025C19.8225 2.16 18.1625 0.5 16.12 0.5C14.0775 0.5 12.4175 2.16 12.4175 4.2025C12.4175 6.2425 14.08 7.905 16.12 7.905ZM16.12 1.5C17.61 1.5 18.8225 2.7125 18.8225 4.2025C18.8225 5.6925 17.61 6.905 16.12 6.905C14.63 6.905 13.4175 5.6925 13.4175 4.2025C13.4175 2.7125 14.63 1.5 16.12 1.5Z" fill="black"/>
<path d="M29.555 28.2299L26.4825 20.6974C26.0175 19.5574 24.92 18.8224 23.6925 18.8224H22.62C21.8775 16.6324 20.3375 14.7549 18.3275 13.5924V10.6849C18.3275 9.55238 17.405 8.62988 16.2725 8.62988H14.1625C11.6325 8.62988 9.56751 10.6649 9.52001 13.1824C9.02251 13.4124 8.55001 13.6824 8.10751 13.9899L7.67751 10.6949C7.52501 9.51738 6.51251 8.62988 5.32501 8.62988H2.76501C2.49001 8.62988 2.26501 8.85488 2.26501 9.12988C2.26501 9.40488 2.49001 9.62988 2.76501 9.62988H5.32751C6.01501 9.62988 6.59751 10.1424 6.68751 10.8249L7.19251 14.7049C5.04001 16.6099 3.79751 19.4349 3.95001 22.4074C4.19751 27.2374 8.02001 31.1374 12.8425 31.4749C13.07 31.4899 13.2925 31.4974 13.5175 31.4974C17.855 31.4974 21.67 28.5549 22.7925 24.4174L25.0925 30.0524C25.475 30.9849 26.3775 31.5499 27.3275 31.5499C27.63 31.5499 27.9375 31.4924 28.2325 31.3724C29.145 31.0024 29.735 30.1274 29.735 29.1424C29.735 28.8274 29.675 28.5224 29.555 28.2299ZM13.5175 30.4999C13.3175 30.4999 13.115 30.4924 12.9125 30.4799C8.59501 30.1749 5.17001 26.6849 4.95001 22.3574C4.77751 18.9999 6.59251 15.8574 9.52251 14.3024V20.0849C9.52251 21.2974 10.44 22.3124 11.61 22.3974C11.665 22.4024 11.72 22.4024 11.775 22.4024C12.3725 22.4024 12.9475 22.1674 13.3725 21.7424C13.8 21.3174 14.035 20.7524 14.035 20.1474V15.8649C15.285 15.9674 16.48 16.4574 17.445 17.2724C18.8125 18.4274 19.5975 20.1174 19.5975 21.9074C19.5975 25.2499 16.8775 27.9699 13.535 27.9699C10.1925 27.9699 7.47251 25.2499 7.47251 21.9074C7.47251 21.6324 7.24751 21.4074 6.97251 21.4074C6.69751 21.4074 6.47251 21.6324 6.47251 21.9074C6.47251 25.8024 9.64001 28.9699 13.535 28.9699C17.43 28.9699 20.5975 25.8024 20.5975 21.9074C20.5975 19.8224 19.6825 17.8549 18.09 16.5099C16.9475 15.5449 15.5225 14.9724 14.035 14.8674V12.8124C14.035 12.5374 13.81 12.3124 13.535 12.3124C13.26 12.3124 13.035 12.5374 13.035 12.8124V20.1499C13.035 20.4849 12.905 20.7999 12.6675 21.0374C12.41 21.2949 12.05 21.4274 11.6825 21.4024C11.0325 21.3549 10.5225 20.7774 10.5225 20.0874V13.2699C10.5225 13.2674 10.5225 13.2649 10.5225 13.2649C10.5275 11.2624 12.1575 9.63238 14.165 9.63238H16.275C16.8575 9.63238 17.33 10.1049 17.33 10.6874V13.8874C17.33 14.0724 17.4325 14.2399 17.5925 14.3274C19.6075 15.4099 21.1325 17.2824 21.78 19.4749C21.815 19.5849 21.845 19.6949 21.8725 19.8099C22.045 20.4924 22.1325 21.1974 22.1325 21.9074C22.1325 22.3099 22.105 22.7049 22.0525 23.0774L22.045 23.1299C21.44 27.3649 17.755 30.4999 13.5175 30.4999ZM27.855 30.4474C27.135 30.7399 26.31 30.3949 26.0175 29.6774L23.275 22.9549C23.2375 22.8599 23.1725 22.7824 23.09 22.7274C23.1125 22.4574 23.13 22.1824 23.13 21.9024C23.13 21.1999 23.0475 20.4999 22.8975 19.8199H23.6925C24.515 19.8199 25.245 20.3124 25.5575 21.0749L28.63 28.6074C28.7 28.7774 28.735 28.9574 28.735 29.1399C28.735 29.7174 28.39 30.2299 27.855 30.4474Z" fill="black"/>
</g>
<defs>
<clipPath id="clip0_280_3783">
<rect width="32" height="32" fill="white"/>
</clipPath>
</defs>
</svg>
